<svg width="1600" height="900" viewBox="0 0 1600 900" fill="none" xmlns="http://www.w3.org/2000/svg">
  <defs>
    <linearGradient id="bg" x1="0%" y1="0%" x2="100%" y2="100%">
      <stop offset="0%" stop-color="#f0f9ff"/>
      <stop offset="100%" stop-color="#e0f2fe"/>
    </linearGradient>
    <filter id="card">
      <feDropShadow dx="0" dy="2" stdDeviation="5" flood-color="#0369a1" flood-opacity="0.09"/>
    </filter>
    <filter id="cardSm">
      <feDropShadow dx="0" dy="1" stdDeviation="3" flood-color="#0369a1" flood-opacity="0.07"/>
    </filter>
  </defs>

  <rect width="1600" height="900" fill="url(#bg)"/>
  <!-- dot grid -->
  <pattern id="dots" width="22" height="22" patternUnits="userSpaceOnUse">
    <circle cx="11" cy="11" r="0.6" fill="#0369a1" fill-opacity="0.05"/>
  </pattern>
  <rect width="1600" height="900" fill="url(#dots)"/>

  <!-- ═══ TOP BAR ═══ -->
  <rect x="60" y="36" width="1480" height="46" rx="12" fill="#ffffff" filter="url(#cardSm)"/>
  <circle cx="88" cy="59" r="5" fill="#22c55e"/>
  <animate attributeName="r" values="5;6;5" dur="2s" repeatCount="indefinite"/>
  <text x="104" y="64" fill="#22c55e" font-family="monospace" font-size="10" font-weight="600" letter-spacing="1">ALL SERVICES HEALTHY</text>
  <text x="800" y="64" text-anchor="middle" fill="#0c4a6e" font-family="system-ui,sans-serif" font-size="13" font-weight="800" letter-spacing="3">MSA 고도화 및 관측성 구축</text>
  <text x="1520" y="64" text-anchor="end" fill="#94a3b8" font-family="monospace" font-size="9" letter-spacing="1">Spring Cloud · Kafka · Prometheus · Grafana</text>

  <!-- ═══ LAYER LABELS (left side) ═══ -->
  <text x="42" y="165" fill="#94a3b8" font-family="monospace" font-size="8" font-weight="600" letter-spacing="2" writing-mode="horizontal-tb">CLIENT</text>
  <text x="42" y="295" fill="#94a3b8" font-family="monospace" font-size="8" font-weight="600" letter-spacing="2">GATEWAY</text>
  <text x="42" y="440" fill="#94a3b8" font-family="monospace" font-size="8" font-weight="600" letter-spacing="2">SERVICES</text>
  <text x="42" y="580" fill="#94a3b8" font-family="monospace" font-size="8" font-weight="600" letter-spacing="2">MESSAGING</text>
  <text x="42" y="700" fill="#94a3b8" font-family="monospace" font-size="8" font-weight="600" letter-spacing="2">OBSERVE</text>

  <!-- layer dividers -->
  <line x1="100" y1="210" x2="1540" y2="210" stroke="#bae6fd" stroke-width="1" stroke-dasharray="6 4"/>
  <line x1="100" y1="340" x2="1540" y2="340" stroke="#bae6fd" stroke-width="1" stroke-dasharray="6 4"/>
  <line x1="100" y1="510" x2="1540" y2="510" stroke="#bae6fd" stroke-width="1" stroke-dasharray="6 4"/>
  <line x1="100" y1="640" x2="1540" y2="640" stroke="#bae6fd" stroke-width="1" stroke-dasharray="6 4"/>

  <!-- ═══ CLIENT LAYER ═══ -->
  <g transform="translate(400,165)">
    <rect x="-80" y="-30" width="160" height="60" rx="12" fill="#ffffff" stroke="#bae6fd" stroke-width="1.5" filter="url(#cardSm)"/>
    <text text-anchor="middle" y="-6" fill="#0c4a6e" font-family="system-ui,sans-serif" font-size="11" font-weight="700">Web Client</text>
    <text text-anchor="middle" y="12" fill="#94a3b8" font-family="monospace" font-size="8">React / Next.js</text>
  </g>
  <g transform="translate(700,165)">
    <rect x="-80" y="-30" width="160" height="60" rx="12" fill="#ffffff" stroke="#bae6fd" stroke-width="1.5" filter="url(#cardSm)"/>
    <text text-anchor="middle" y="-6" fill="#0c4a6e" font-family="system-ui,sans-serif" font-size="11" font-weight="700">Mobile Client</text>
    <text text-anchor="middle" y="12" fill="#94a3b8" font-family="monospace" font-size="8">iOS / Android</text>
  </g>
  <g transform="translate(1000,165)">
    <rect x="-80" y="-30" width="160" height="60" rx="12" fill="#ffffff" stroke="#bae6fd" stroke-width="1.5" filter="url(#cardSm)"/>
    <text text-anchor="middle" y="-6" fill="#0c4a6e" font-family="system-ui,sans-serif" font-size="11" font-weight="700">External API</text>
    <text text-anchor="middle" y="12" fill="#94a3b8" font-family="monospace" font-size="8">3rd Party Services</text>
  </g>

  <!-- Client → Gateway arrows -->
  <line x1="400" y1="195" x2="480" y2="248" stroke="#7dd3fc" stroke-width="1.5" stroke-dasharray="4 3"/>
  <polygon points="478,244 484,252 476,252" fill="#7dd3fc"/>
  <line x1="700" y1="195" x2="660" y2="248" stroke="#7dd3fc" stroke-width="1.5" stroke-dasharray="4 3"/>
  <polygon points="656,244 662,252 654,252" fill="#7dd3fc"/>
  <line x1="1000" y1="195" x2="860" y2="248" stroke="#7dd3fc" stroke-width="1.5" stroke-dasharray="4 3"/>
  <polygon points="855,244 863,252 857,252" fill="#7dd3fc"/>

  <!-- ═══ GATEWAY LAYER ═══ -->
  <!-- API Gateway (center, prominent) -->
  <g transform="translate(660,280)">
    <rect x="-130" y="-38" width="260" height="76" rx="14" fill="#0369a1" filter="url(#card)"/>
    <rect x="-130" y="-38" width="260" height="76" rx="14" fill="white" fill-opacity="0.08"/>
    <!-- shield/gateway icon -->
    <path d="M -90 -10 L -90 2 Q -90 12 -80 16 Q -70 12 -70 2 L -70 -10 Z" fill="white" fill-opacity="0.5"/>
    <text x="-55" y="-10" fill="#ffffff" font-family="system-ui,sans-serif" font-size="13" font-weight="800">API Gateway</text>
    <text x="-55" y="8" fill="#bae6fd" font-family="monospace" font-size="9">Spring Cloud Gateway</text>
    <text x="-55" y="22" fill="#bae6fd" font-family="monospace" font-size="8" fill-opacity="0.7">Route · Auth Filter · Rate Limit</text>
  </g>

  <!-- Config Server -->
  <g transform="translate(1060,280)">
    <rect x="-100" y="-32" width="200" height="64" rx="12" fill="#ffffff" stroke="#0369a1" stroke-opacity="0.25" stroke-width="1.5" filter="url(#cardSm)"/>
    <!-- gear icon -->
    <circle cx="-68" cy="0" r="14" fill="#eff6ff" stroke="#0369a1" stroke-opacity="0.2" stroke-width="1"/>
    <path d="M -68 -8 L -68 -5 M -68 5 L -68 8 M -76 0 L -73 0 M -63 0 L -60 0" stroke="#0369a1" stroke-width="1.5" stroke-linecap="round" stroke-opacity="0.6"/>
    <circle cx="-68" cy="0" r="4" fill="none" stroke="#0369a1" stroke-width="1.2" stroke-opacity="0.5"/>
    <text x="-40" y="-8" fill="#0c4a6e" font-family="system-ui,sans-serif" font-size="11" font-weight="700">Config Server</text>
    <text x="-40" y="8" fill="#94a3b8" font-family="monospace" font-size="8">Spring Cloud Config</text>
    <text x="-40" y="22" fill="#94a3b8" font-family="monospace" font-size="7.5">+ Bus · RabbitMQ Hot Reload</text>
  </g>

  <!-- Eureka -->
  <g transform="translate(260,280)">
    <rect x="-100" y="-32" width="200" height="64" rx="12" fill="#ffffff" stroke="#0369a1" stroke-opacity="0.25" stroke-width="1.5" filter="url(#cardSm)"/>
    <!-- search icon -->
    <circle cx="-68" cy="-2" r="12" fill="#eff6ff" stroke="#0369a1" stroke-opacity="0.2" stroke-width="1"/>
    <circle cx="-70" cy="-4" r="5" fill="none" stroke="#0369a1" stroke-opacity="0.5" stroke-width="1.5"/>
    <line x1="-64" y1="2" x2="-60" y2="6" stroke="#0369a1" stroke-opacity="0.5" stroke-width="1.5" stroke-linecap="round"/>
    <text x="-40" y="-8" fill="#0c4a6e" font-family="system-ui,sans-serif" font-size="11" font-weight="700">Eureka Server</text>
    <text x="-40" y="8" fill="#94a3b8" font-family="monospace" font-size="8">Service Discovery</text>
    <text x="-40" y="22" fill="#94a3b8" font-family="monospace" font-size="7.5">Health Check · Registry</text>
  </g>

  <!-- Config ↔ Gateway annotation -->
  <line x1="790" y1="280" x2="960" y2="280" stroke="#0369a1" stroke-opacity="0.15" stroke-width="1" stroke-dasharray="4 3"/>
  <text x="875" y="274" text-anchor="middle" fill="#0369a1" fill-opacity="0.3" font-family="monospace" font-size="7">hot-reload</text>

  <!-- ═══ SERVICES LAYER ═══ -->
  <!-- FeignClient labels above services -->
  <text x="800" y="360" text-anchor="middle" fill="#0369a1" fill-opacity="0.3" font-family="monospace" font-size="8" letter-spacing="1">FeignClient inter-service calls</text>
  <line x1="340" y1="365" x2="1260" y2="365" stroke="#0369a1" stroke-opacity="0.08" stroke-width="1"/>

  <!-- Service: Authentication -->
  <g transform="translate(320,440)">
    <rect x="-90" y="-42" width="180" height="84" rx="12" fill="#ffffff" stroke="#0369a1" stroke-opacity="0.18" stroke-width="1.2" filter="url(#cardSm)"/>
    <rect x="-90" y="-42" width="180" height="8" rx="12" fill="#0369a1" fill-opacity="0.08"/>
    <text text-anchor="middle" y="-20" fill="#0c4a6e" font-family="system-ui,sans-serif" font-size="11" font-weight="700">Authentication</text>
    <text text-anchor="middle" y="-4" fill="#94a3b8" font-family="monospace" font-size="7.5">Spring Boot 3</text>
    <rect x="-65" y="6" width="50" height="16" rx="4" fill="#eff6ff"/>
    <text x="-40" y="18" text-anchor="middle" fill="#0369a1" font-family="monospace" font-size="7" font-weight="600">Feign</text>
    <rect x="-6" y="6" width="70" height="16" rx="4" fill="#f0fdf4"/>
    <text x="29" y="18" text-anchor="middle" fill="#16a34a" font-family="monospace" font-size="7" font-weight="600">CB: CLOSED</text>
  </g>

  <!-- Service: Separate-path -->
  <g transform="translate(560,440)">
    <rect x="-90" y="-42" width="180" height="84" rx="12" fill="#ffffff" stroke="#0369a1" stroke-opacity="0.18" stroke-width="1.2" filter="url(#cardSm)"/>
    <rect x="-90" y="-42" width="180" height="8" rx="12" fill="#0369a1" fill-opacity="0.08"/>
    <text text-anchor="middle" y="-20" fill="#0c4a6e" font-family="system-ui,sans-serif" font-size="11" font-weight="700">Separate-path</text>
    <text text-anchor="middle" y="-4" fill="#94a3b8" font-family="monospace" font-size="7.5">Spring Boot 3</text>
    <rect x="-65" y="6" width="50" height="16" rx="4" fill="#eff6ff"/>
    <text x="-40" y="18" text-anchor="middle" fill="#0369a1" font-family="monospace" font-size="7" font-weight="600">Feign</text>
    <rect x="-6" y="6" width="70" height="16" rx="4" fill="#f0fdf4"/>
    <text x="29" y="18" text-anchor="middle" fill="#16a34a" font-family="monospace" font-size="7" font-weight="600">CB: CLOSED</text>
  </g>

  <!-- Service: Mission -->
  <g transform="translate(800,440)">
    <rect x="-90" y="-42" width="180" height="84" rx="12" fill="#ffffff" stroke="#0369a1" stroke-opacity="0.18" stroke-width="1.2" filter="url(#cardSm)"/>
    <rect x="-90" y="-42" width="180" height="8" rx="12" fill="#0369a1" fill-opacity="0.08"/>
    <text text-anchor="middle" y="-20" fill="#0c4a6e" font-family="system-ui,sans-serif" font-size="11" font-weight="700">Mission</text>
    <text text-anchor="middle" y="-4" fill="#94a3b8" font-family="monospace" font-size="7.5">Spring Boot 3</text>
    <rect x="-65" y="6" width="50" height="16" rx="4" fill="#eff6ff"/>
    <text x="-40" y="18" text-anchor="middle" fill="#0369a1" font-family="monospace" font-size="7" font-weight="600">Feign</text>
    <rect x="-6" y="6" width="70" height="16" rx="4" fill="#f0fdf4"/>
    <text x="29" y="18" text-anchor="middle" fill="#16a34a" font-family="monospace" font-size="7" font-weight="600">CB: CLOSED</text>
  </g>

  <!-- Service: Notification -->
  <g transform="translate(1040,440)">
    <rect x="-90" y="-42" width="180" height="84" rx="12" fill="#ffffff" stroke="#0369a1" stroke-opacity="0.18" stroke-width="1.2" filter="url(#cardSm)"/>
    <rect x="-90" y="-42" width="180" height="8" rx="12" fill="#0369a1" fill-opacity="0.08"/>
    <text text-anchor="middle" y="-20" fill="#0c4a6e" font-family="system-ui,sans-serif" font-size="11" font-weight="700">Notification</text>
    <text text-anchor="middle" y="-4" fill="#94a3b8" font-family="monospace" font-size="7.5">Spring Boot 3</text>
    <rect x="-65" y="6" width="50" height="16" rx="4" fill="#eff6ff"/>
    <text x="-40" y="18" text-anchor="middle" fill="#0369a1" font-family="monospace" font-size="7" font-weight="600">Feign</text>
    <rect x="-6" y="6" width="70" height="16" rx="4" fill="#f0fdf4"/>
    <text x="29" y="18" text-anchor="middle" fill="#16a34a" font-family="monospace" font-size="7" font-weight="600">CB: CLOSED</text>
  </g>

  <!-- Service: Fail-safe -->
  <g transform="translate(1280,440)">
    <rect x="-90" y="-42" width="180" height="84" rx="12" fill="#ffffff" stroke="#0369a1" stroke-opacity="0.18" stroke-width="1.2" filter="url(#cardSm)"/>
    <rect x="-90" y="-42" width="180" height="8" rx="12" fill="#0369a1" fill-opacity="0.08"/>
    <text text-anchor="middle" y="-20" fill="#0c4a6e" font-family="system-ui,sans-serif" font-size="11" font-weight="700">Fail-safe</text>
    <text text-anchor="middle" y="-4" fill="#94a3b8" font-family="monospace" font-size="7.5">Spring Boot 3</text>
    <rect x="-65" y="6" width="50" height="16" rx="4" fill="#eff6ff"/>
    <text x="-40" y="18" text-anchor="middle" fill="#0369a1" font-family="monospace" font-size="7" font-weight="600">Feign</text>
    <rect x="-6" y="6" width="70" height="16" rx="4" fill="#f0fdf4"/>
    <text x="29" y="18" text-anchor="middle" fill="#16a34a" font-family="monospace" font-size="7" font-weight="600">CB: CLOSED</text>
  </g>

  <!-- Gateway → Services arrows -->
  <line x1="590" y1="318" x2="360" y2="398" stroke="#7dd3fc" stroke-width="1.5"/>
  <polygon points="356,395 362,403 368,396" fill="#7dd3fc"/>
  <line x1="620" y1="318" x2="560" y2="398" stroke="#7dd3fc" stroke-width="1.5"/>
  <polygon points="556,395 562,403 568,396" fill="#7dd3fc"/>
  <line x1="660" y1="318" x2="800" y2="398" stroke="#7dd3fc" stroke-width="1.5"/>
  <polygon points="796,395 802,403 808,396" fill="#7dd3fc"/>
  <line x1="690" y1="318" x2="1040" y2="398" stroke="#7dd3fc" stroke-width="1.2" stroke-opacity="0.7"/>
  <polygon points="1036,395 1042,403 1048,396" fill="#7dd3fc" fill-opacity="0.7"/>
  <line x1="710" y1="318" x2="1280" y2="398" stroke="#7dd3fc" stroke-width="1" stroke-opacity="0.5"/>
  <polygon points="1276,395 1282,403 1288,396" fill="#7dd3fc" fill-opacity="0.5"/>

  <!-- Data flow particles -->
  <circle r="3" fill="#0369a1" opacity="0.4">
    <animateMotion dur="1.8s" repeatCount="indefinite" path="M 620 318 L 560 398"/>
  </circle>
  <circle r="2.5" fill="#0369a1" opacity="0.35">
    <animateMotion dur="2s" repeatCount="indefinite" path="M 660 318 L 800 398"/>
  </circle>

  <!-- ═══ MESSAGING LAYER ═══ -->
  <!-- Kafka (center, prominent) -->
  <g transform="translate(660,570)">
    <rect x="-140" y="-38" width="280" height="76" rx="14" fill="#18181b" filter="url(#card)"/>
    <rect x="-140" y="-38" width="280" height="76" rx="14" fill="white" fill-opacity="0.04"/>
    <!-- Kafka logo hint: stacked lines -->
    <rect x="-110" y="-14" width="20" height="4" rx="1" fill="white" fill-opacity="0.7"/>
    <rect x="-110" y="-4" width="20" height="4" rx="1" fill="white" fill-opacity="0.5"/>
    <rect x="-110" y="6" width="20" height="4" rx="1" fill="white" fill-opacity="0.3"/>
    <text x="-78" y="-10" fill="#ffffff" font-family="system-ui,sans-serif" font-size="13" font-weight="800">Apache Kafka</text>
    <text x="-78" y="7" fill="#a1a1aa" font-family="monospace" font-size="9">Event Streaming</text>
    <text x="-78" y="22" fill="#a1a1aa" font-family="monospace" font-size="8" fill-opacity="0.7">auth-events · mission-events · failsafe-alerts</text>
  </g>

  <!-- RabbitMQ -->
  <g transform="translate(1120,570)">
    <rect x="-100" y="-32" width="200" height="64" rx="12" fill="#ffffff" stroke="#f59e0b" stroke-opacity="0.3" stroke-width="1.5" filter="url(#cardSm)"/>
    <circle cx="-68" cy="0" r="14" fill="#fffbeb"/>
    <text x="-68" y="5" text-anchor="middle" fill="#d97706" font-family="system-ui,sans-serif" font-size="12" font-weight="800">RQ</text>
    <text x="-40" y="-8" fill="#0c4a6e" font-family="system-ui,sans-serif" font-size="11" font-weight="700">RabbitMQ</text>
    <text x="-40" y="8" fill="#94a3b8" font-family="monospace" font-size="8">Spring Cloud Bus</text>
    <text x="-40" y="22" fill="#94a3b8" font-family="monospace" font-size="7.5">Config hot-reload events</text>
  </g>


  <!-- Service → Kafka arrows -->
  <line x1="560" y1="482" x2="620" y2="532" stroke="#18181b" stroke-opacity="0.1" stroke-width="1.5" stroke-dasharray="4 3"/>
  <line x1="800" y1="482" x2="720" y2="532" stroke="#18181b" stroke-opacity="0.1" stroke-width="1.5" stroke-dasharray="4 3"/>
  <line x1="320" y1="482" x2="560" y2="532" stroke="#18181b" stroke-opacity="0.1" stroke-width="1.2" stroke-dasharray="4 3"/>

  <!-- Kafka → Notification -->
  <line x1="800" y1="532" x2="1040" y2="482" stroke="#18181b" stroke-opacity="0.1" stroke-width="1.2" stroke-dasharray="4 3"/>

  <!-- Config reload via RabbitMQ annotation -->
  <line x1="960" y1="280" x2="1120" y2="532" stroke="#f59e0b" stroke-opacity="0.15" stroke-width="1" stroke-dasharray="3 4"/>
  <text x="1070" y="410" fill="#d97706" fill-opacity="0.3" font-family="monospace" font-size="7" transform="rotate(-40,1070,410)">config bus</text>

  <!-- ═══ OBSERVABILITY LAYER ═══ -->
  <!-- Prometheus -->
  <g transform="translate(380,680)">
    <rect x="-120" y="-36" width="240" height="72" rx="12" fill="#ffffff" stroke="#e11d48" stroke-opacity="0.2" stroke-width="1.5" filter="url(#cardSm)"/>
    <circle cx="-85" cy="0" r="16" fill="#fff1f2"/>
    <!-- Prometheus circle icon -->
    <circle cx="-85" cy="0" r="8" fill="none" stroke="#e11d48" stroke-opacity="0.5" stroke-width="1.5"/>
    <circle cx="-85" cy="0" r="3" fill="#e11d48" fill-opacity="0.4"/>
    <text x="-55" y="-8" fill="#0c4a6e" font-family="system-ui,sans-serif" font-size="12" font-weight="700">Prometheus</text>
    <text x="-55" y="8" fill="#94a3b8" font-family="monospace" font-size="8">Metrics Scrape · TSDB</text>
    <text x="-55" y="22" fill="#94a3b8" font-family="monospace" font-size="7.5">Micrometer · /actuator/prometheus</text>
  </g>

  <!-- Grafana -->
  <g transform="translate(720,680)">
    <rect x="-130" y="-36" width="260" height="72" rx="12" fill="#ffffff" stroke="#f97316" stroke-opacity="0.2" stroke-width="1.5" filter="url(#cardSm)"/>
    <circle cx="-90" cy="0" r="16" fill="#fff7ed"/>
    <!-- Grafana G icon -->
    <text x="-90" y="5" text-anchor="middle" fill="#ea580c" font-family="system-ui,sans-serif" font-size="16" font-weight="900">G</text>
    <text x="-55" y="-8" fill="#0c4a6e" font-family="system-ui,sans-serif" font-size="12" font-weight="700">Grafana</text>
    <text x="-55" y="8" fill="#94a3b8" font-family="monospace" font-size="8">Dashboard · Alerting</text>
    <text x="-55" y="22" fill="#94a3b8" font-family="monospace" font-size="7.5">Latency · Error Rate · Throughput</text>
  </g>

  <!-- CircuitBreaker status -->
  <g transform="translate(1120,680)">
    <rect x="-130" y="-36" width="260" height="72" rx="12" fill="#ffffff" stroke="#22c55e" stroke-opacity="0.2" stroke-width="1.5" filter="url(#cardSm)"/>
    <circle cx="-90" cy="0" r="16" fill="#f0fdf4"/>
    <!-- Circuit icon -->
    <path d="M -98 0 L -93 0 M -87 0 L -82 0" stroke="#16a34a" stroke-width="1.5" stroke-linecap="round"/>
    <circle cx="-90" cy="0" r="4" fill="none" stroke="#16a34a" stroke-width="1.5"/>
    <text x="-55" y="-8" fill="#0c4a6e" font-family="system-ui,sans-serif" font-size="12" font-weight="700">CircuitBreaker</text>
    <text x="-55" y="8" fill="#94a3b8" font-family="monospace" font-size="8">Resilience4j</text>
    <text x="-55" y="22" fill="#16a34a" font-family="monospace" font-size="7.5" font-weight="600">CLOSED · Fallback Ready</text>
  </g>

  <!-- Services → Prometheus (scrape arrows) -->
  <line x1="320" y1="482" x2="330" y2="644" stroke="#e11d48" stroke-opacity="0.1" stroke-width="1" stroke-dasharray="3 4"/>
  <line x1="560" y1="482" x2="380" y2="644" stroke="#e11d48" stroke-opacity="0.1" stroke-width="1" stroke-dasharray="3 4"/>
  <line x1="800" y1="482" x2="420" y2="644" stroke="#e11d48" stroke-opacity="0.1" stroke-width="1" stroke-dasharray="3 4"/>
  <text x="290" y="580" fill="#e11d48" fill-opacity="0.2" font-family="monospace" font-size="7" transform="rotate(80,290,580)">scrape</text>

  <!-- Prometheus → Grafana -->
  <line x1="500" y1="680" x2="590" y2="680" stroke="#f97316" stroke-opacity="0.2" stroke-width="1.5"/>
  <polygon points="588,677 596,680 588,683" fill="#f97316" fill-opacity="0.3"/>

  <!-- ═══ BOTTOM STATS ═══ -->
  <rect x="60" y="780" width="1480" height="82" rx="14" fill="#ffffff" filter="url(#cardSm)"/>

  <g transform="translate(230,821)">
    <text text-anchor="middle" y="-6" fill="#0c4a6e" font-family="system-ui,sans-serif" font-size="28" font-weight="800">5</text>
    <text text-anchor="middle" y="14" fill="#94a3b8" font-family="monospace" font-size="9" font-weight="600" letter-spacing="2">SERVICES</text>
  </g>
  <line x1="390" y1="795" x2="390" y2="845" stroke="#e0f2fe"/>

  <g transform="translate(560,821)">
    <text text-anchor="middle" y="-6" fill="#0c4a6e" font-family="system-ui,sans-serif" font-size="28" font-weight="800">Eureka</text>
    <text text-anchor="middle" y="14" fill="#94a3b8" font-family="monospace" font-size="9" font-weight="600" letter-spacing="2">DISCOVERY</text>
  </g>
  <line x1="740" y1="795" x2="740" y2="845" stroke="#e0f2fe"/>

  <g transform="translate(900,821)">
    <text text-anchor="middle" y="-6" fill="#0c4a6e" font-family="system-ui,sans-serif" font-size="28" font-weight="800">Kafka</text>
    <text text-anchor="middle" y="14" fill="#94a3b8" font-family="monospace" font-size="9" font-weight="600" letter-spacing="2">EVENT STREAM</text>
  </g>
  <line x1="1080" y1="795" x2="1080" y2="845" stroke="#e0f2fe"/>

  <g transform="translate(1260,821)">
    <text text-anchor="middle" y="-6" fill="#22c55e" font-family="system-ui,sans-serif" font-size="15" font-weight="700">Full Observability</text>
    <text text-anchor="middle" y="14" fill="#94a3b8" font-family="monospace" font-size="9" font-weight="600" letter-spacing="2">METRICS · ALERTS · DASHBOARDS</text>
  </g>

  <!-- Bottom accent bar -->
  <rect x="60" y="878" width="1480" height="4" rx="2" fill="#0369a1" fill-opacity="0.06"/>
</svg>
