<svg width="1600" height="900" viewBox="0 0 1600 900" fill="none" xmlns="http://www.w3.org/2000/svg">
  <defs>
    <linearGradient id="bg" x1="0%" y1="0%" x2="100%" y2="100%">
      <stop offset="0%" stop-color="#f0f4f8"/>
      <stop offset="100%" stop-color="#e2e8f0"/>
    </linearGradient>
    <filter id="shadow">
      <feDropShadow dx="0" dy="2" stdDeviation="6" flood-color="#415063" flood-opacity="0.12"/>
    </filter>
    <filter id="shadowSm">
      <feDropShadow dx="0" dy="1" stdDeviation="3" flood-color="#415063" flood-opacity="0.1"/>
    </filter>
  </defs>

  <rect width="1600" height="900" fill="url(#bg)"/>
  <!-- Subtle dot pattern -->
  <pattern id="dots" width="24" height="24" patternUnits="userSpaceOnUse">
    <circle cx="12" cy="12" r="0.8" fill="#415063" fill-opacity="0.06"/>
  </pattern>
  <rect width="1600" height="900" fill="url(#dots)"/>

  <!-- ═══ Title bar ═══ -->
  <rect x="60" y="40" width="1480" height="50" rx="12" fill="#ffffff" filter="url(#shadowSm)"/>
  <circle cx="90" cy="65" r="5" fill="#34d399"/>
  <text x="106" y="70" fill="#34d399" font-family="monospace" font-size="10" font-weight="600" letter-spacing="1">HEALTHY</text>
  <text x="800" y="70" text-anchor="middle" fill="#1e293b" font-family="system-ui,sans-serif" font-size="13" font-weight="700" letter-spacing="2">MSA OBSERVABILITY PLATFORM</text>
  <text x="1480" y="70" text-anchor="end" fill="#94a3b8" font-family="monospace" font-size="9" letter-spacing="1">Prometheus · Grafana · Zipkin</text>

  <!-- ═══ LEFT: Service Topology ═══ -->
  <rect x="60" y="110" width="440" height="490" rx="16" fill="#ffffff" filter="url(#shadow)"/>
  <text x="85" y="142" fill="#64748b" font-family="monospace" font-size="9" font-weight="600" letter-spacing="3">SERVICE MAP</text>
  <line x1="85" y1="152" x2="480" y2="152" stroke="#e2e8f0" stroke-width="1"/>

  <!-- API Gateway -->
  <g transform="translate(280,220)">
    <circle r="48" fill="#ffffff" stroke="#415063" stroke-width="2" filter="url(#shadowSm)"/>
    <rect x="-14" y="-16" width="28" height="7" rx="2" fill="#415063"/>
    <rect x="-10" y="-5" width="20" height="7" rx="2" fill="#415063" fill-opacity="0.6"/>
    <rect x="-14" y="6" width="28" height="7" rx="2" fill="#415063" fill-opacity="0.4"/>
    <text y="68" text-anchor="middle" fill="#1e293b" font-family="system-ui,sans-serif" font-size="11" font-weight="700">API Gateway</text>
    <text y="82" text-anchor="middle" fill="#34d399" font-family="monospace" font-size="8" font-weight="600">200 OK · 4ms</text>
  </g>

  <!-- Order Service -->
  <g transform="translate(155,400)">
    <circle r="42" fill="#ffffff" stroke="#415063" stroke-width="1.5" stroke-opacity="0.5" filter="url(#shadowSm)"/>
    <rect x="-12" y="-12" width="24" height="24" rx="4" fill="none" stroke="#415063" stroke-width="1.5"/>
    <line x1="-12" y1="-2" x2="12" y2="-2" stroke="#415063" stroke-width="1" stroke-opacity="0.4"/>
    <text y="58" text-anchor="middle" fill="#1e293b" font-family="system-ui,sans-serif" font-size="10" font-weight="600">Order Svc</text>
    <text y="72" text-anchor="middle" fill="#34d399" font-family="monospace" font-size="7">12ms avg</text>
  </g>

  <!-- Payment Service -->
  <g transform="translate(405,400)">
    <circle r="42" fill="#ffffff" stroke="#415063" stroke-width="1.5" stroke-opacity="0.5" filter="url(#shadowSm)"/>
    <rect x="-14" y="-8" width="28" height="18" rx="3" fill="none" stroke="#415063" stroke-width="1.5"/>
    <line x1="-14" y1="-1" x2="14" y2="-1" stroke="#415063" stroke-width="1.2"/>
    <rect x="-9" y="3" width="10" height="4" rx="1" fill="#415063" fill-opacity="0.3"/>
    <text y="58" text-anchor="middle" fill="#1e293b" font-family="system-ui,sans-serif" font-size="10" font-weight="600">Payment Svc</text>
    <text y="72" text-anchor="middle" fill="#34d399" font-family="monospace" font-size="7">8ms avg</text>
  </g>

  <!-- Notification -->
  <g transform="translate(280,530)">
    <circle r="35" fill="#ffffff" stroke="#415063" stroke-width="1.5" stroke-opacity="0.4" filter="url(#shadowSm)"/>
    <path d="M -7 -10 Q -7 -16 0 -16 Q 7 -16 7 -10 L 10 3 L -10 3 Z" fill="none" stroke="#415063" stroke-width="1.2"/>
    <circle cx="0" cy="6" r="2.5" fill="#415063" fill-opacity="0.4"/>
    <text y="50" text-anchor="middle" fill="#1e293b" font-family="system-ui,sans-serif" font-size="10" font-weight="600">Notify</text>
  </g>

  <!-- Connections -->
  <line x1="280" y1="268" x2="175" y2="358" stroke="#415063" stroke-opacity="0.2" stroke-width="1.5" stroke-dasharray="5 4"/>
  <line x1="280" y1="268" x2="385" y2="358" stroke="#415063" stroke-opacity="0.2" stroke-width="1.5" stroke-dasharray="5 4"/>
  <line x1="175" y1="442" x2="258" y2="498" stroke="#415063" stroke-opacity="0.15" stroke-width="1.5" stroke-dasharray="5 4"/>
  <line x1="385" y1="442" x2="302" y2="498" stroke="#415063" stroke-opacity="0.15" stroke-width="1.5" stroke-dasharray="5 4"/>

  <!-- Flow dots -->
  <circle r="3" fill="#415063" opacity="0.5">
    <animateMotion dur="2s" repeatCount="indefinite" path="M 280 268 L 175 358"/>
  </circle>
  <circle r="3" fill="#415063" opacity="0.4">
    <animateMotion dur="2.2s" repeatCount="indefinite" path="M 280 268 L 385 358"/>
  </circle>

  <!-- ═══ CENTER: Metrics Dashboard ═══ -->
  <rect x="520" y="110" width="530" height="490" rx="16" fill="#ffffff" filter="url(#shadow)"/>
  <text x="545" y="142" fill="#64748b" font-family="monospace" font-size="9" font-weight="600" letter-spacing="3">LIVE METRICS</text>
  <line x1="545" y1="152" x2="1030" y2="152" stroke="#e2e8f0" stroke-width="1"/>

  <!-- Latency chart -->
  <rect x="545" y="170" width="480" height="160" rx="8" fill="#f8fafc" stroke="#e2e8f0" stroke-width="1"/>
  <text x="560" y="192" fill="#64748b" font-family="monospace" font-size="8" font-weight="600" letter-spacing="1">RESPONSE LATENCY (ms)</text>

  <!-- Y-axis -->
  <text x="558" y="210" fill="#94a3b8" font-family="monospace" font-size="7">100</text>
  <text x="562" y="242" fill="#94a3b8" font-family="monospace" font-size="7">50</text>
  <text x="566" y="274" fill="#94a3b8" font-family="monospace" font-size="7">20</text>
  <text x="570" y="306" fill="#94a3b8" font-family="monospace" font-size="7">0</text>

  <!-- Grid -->
  <line x1="590" y1="206" x2="1010" y2="206" stroke="#e2e8f0" stroke-width="0.5"/>
  <line x1="590" y1="238" x2="1010" y2="238" stroke="#e2e8f0" stroke-width="0.5"/>
  <line x1="590" y1="270" x2="1010" y2="270" stroke="#e2e8f0" stroke-width="0.5"/>
  <line x1="590" y1="302" x2="1010" y2="302" stroke="#e2e8f0" stroke-width="0.5"/>

  <!-- P50 line (main) -->
  <path d="M 595 278 L 630 273 L 660 268 L 690 266 L 720 271 L 750 263 L 780 258 L 810 256 L 840 260 L 870 253 L 900 248 L 930 246 L 960 250 L 990 244" fill="none" stroke="#415063" stroke-width="2.5" stroke-linecap="round" stroke-linejoin="round"/>
  <!-- Area fill -->
  <path d="M 595 278 L 630 273 L 660 268 L 690 266 L 720 271 L 750 263 L 780 258 L 810 256 L 840 260 L 870 253 L 900 248 L 930 246 L 960 250 L 990 244 L 990 306 L 595 306 Z" fill="#415063" fill-opacity="0.06"/>
  <!-- P99 -->
  <path d="M 595 252 L 630 245 L 660 249 L 690 235 L 720 242 L 750 232 L 780 237 L 810 229 L 840 233 L 870 225 L 900 222 L 930 218 L 960 222 L 990 216" fill="none" stroke="#f59e0b" stroke-width="1.2" stroke-dasharray="4 3" stroke-linecap="round"/>

  <!-- Legend -->
  <line x1="890" y1="188" x2="910" y2="188" stroke="#415063" stroke-width="2.5"/>
  <text x="915" y="191" fill="#64748b" font-family="monospace" font-size="7">P50</text>
  <line x1="945" y1="188" x2="965" y2="188" stroke="#f59e0b" stroke-width="1.2" stroke-dasharray="4 3"/>
  <text x="970" y="191" fill="#64748b" font-family="monospace" font-size="7">P99</text>

  <!-- Throughput bars -->
  <rect x="545" y="350" width="230" height="120" rx="8" fill="#f8fafc" stroke="#e2e8f0" stroke-width="1"/>
  <text x="560" y="372" fill="#64748b" font-family="monospace" font-size="8" font-weight="600" letter-spacing="1">THROUGHPUT (req/s)</text>
  <rect x="578" y="418" width="28" height="38" rx="3" fill="#415063" fill-opacity="0.2"/>
  <rect x="614" y="400" width="28" height="56" rx="3" fill="#415063" fill-opacity="0.25"/>
  <rect x="650" y="406" width="28" height="50" rx="3" fill="#415063" fill-opacity="0.2"/>
  <rect x="686" y="394" width="28" height="62" rx="3" fill="#415063" fill-opacity="0.3"/>
  <rect x="722" y="388" width="28" height="68" rx="3" fill="#415063" fill-opacity="0.45"/>

  <!-- Error rate -->
  <rect x="795" y="350" width="230" height="120" rx="8" fill="#f8fafc" stroke="#e2e8f0" stroke-width="1"/>
  <text x="810" y="372" fill="#64748b" font-family="monospace" font-size="8" font-weight="600" letter-spacing="1">ERROR RATE</text>
  <text x="910" y="430" text-anchor="middle" fill="#34d399" font-family="system-ui,sans-serif" font-size="38" font-weight="800">0.02%</text>
  <text x="910" y="452" text-anchor="middle" fill="#34d399" font-family="monospace" font-size="8" font-weight="600" letter-spacing="2">WITHIN SLA</text>

  <!-- Bottom metric cards -->
  <rect x="545" y="485" width="153" height="55" rx="8" fill="#f8fafc" stroke="#e2e8f0" stroke-width="1"/>
  <text x="560" y="505" fill="#94a3b8" font-family="monospace" font-size="7" letter-spacing="1">UPTIME</text>
  <text x="622" y="530" text-anchor="middle" fill="#1e293b" font-family="system-ui,sans-serif" font-size="20" font-weight="800">99.95%</text>

  <rect x="710" y="485" width="153" height="55" rx="8" fill="#f8fafc" stroke="#e2e8f0" stroke-width="1"/>
  <text x="725" y="505" fill="#94a3b8" font-family="monospace" font-size="7" letter-spacing="1">TRACES/DAY</text>
  <text x="787" y="530" text-anchor="middle" fill="#1e293b" font-family="system-ui,sans-serif" font-size="20" font-weight="800">24K+</text>

  <rect x="875" y="485" width="153" height="55" rx="8" fill="#f8fafc" stroke="#e2e8f0" stroke-width="1"/>
  <text x="890" y="505" fill="#94a3b8" font-family="monospace" font-size="7" letter-spacing="1">ALERT RULES</text>
  <text x="952" y="530" text-anchor="middle" fill="#1e293b" font-family="system-ui,sans-serif" font-size="20" font-weight="800">18</text>

  <!-- ═══ RIGHT: Distributed Trace ═══ -->
  <rect x="1070" y="110" width="470" height="490" rx="16" fill="#ffffff" filter="url(#shadow)"/>
  <text x="1095" y="142" fill="#64748b" font-family="monospace" font-size="9" font-weight="600" letter-spacing="3">DISTRIBUTED TRACE</text>
  <line x1="1095" y1="152" x2="1520" y2="152" stroke="#e2e8f0" stroke-width="1"/>

  <text x="1095" y="175" fill="#94a3b8" font-family="monospace" font-size="8">trace-id: 7f3a2b1c-e890-4d5f</text>
  <text x="1095" y="190" fill="#34d399" font-family="monospace" font-size="8" font-weight="600">200 OK · 47ms total</text>

  <!-- Waterfall spans -->
  <text x="1095" y="225" fill="#1e293b" font-family="monospace" font-size="8" font-weight="600">gateway</text>
  <rect x="1200" y="215" width="290" height="15" rx="4" fill="#415063" fill-opacity="0.15"/>
  <text x="1500" y="226" text-anchor="end" fill="#94a3b8" font-family="monospace" font-size="7">47ms</text>

  <text x="1110" y="255" fill="#64748b" font-family="monospace" font-size="8">└ auth</text>
  <rect x="1200" y="245" width="290" height="15" rx="4" fill="#f1f5f9"/>
  <rect x="1205" y="245" width="42" height="15" rx="4" fill="#34d399" fill-opacity="0.25"/>
  <text x="1500" y="256" text-anchor="end" fill="#94a3b8" font-family="monospace" font-size="7">3ms</text>

  <text x="1110" y="285" fill="#64748b" font-family="monospace" font-size="8">└ order-svc</text>
  <rect x="1200" y="275" width="290" height="15" rx="4" fill="#f1f5f9"/>
  <rect x="1248" y="275" width="180" height="15" rx="4" fill="#415063" fill-opacity="0.2"/>
  <text x="1500" y="286" text-anchor="end" fill="#94a3b8" font-family="monospace" font-size="7">28ms</text>

  <text x="1125" y="315" fill="#94a3b8" font-family="monospace" font-size="8">└ db.query</text>
  <rect x="1200" y="305" width="290" height="15" rx="4" fill="#f1f5f9"/>
  <rect x="1265" y="305" width="80" height="15" rx="4" fill="#f59e0b" fill-opacity="0.2"/>
  <text x="1500" y="316" text-anchor="end" fill="#94a3b8" font-family="monospace" font-size="7">12ms</text>

  <text x="1125" y="345" fill="#94a3b8" font-family="monospace" font-size="8">└ cache.get</text>
  <rect x="1200" y="335" width="290" height="15" rx="4" fill="#f1f5f9"/>
  <rect x="1260" y="335" width="16" height="15" rx="4" fill="#34d399" fill-opacity="0.25"/>
  <text x="1500" y="346" text-anchor="end" fill="#94a3b8" font-family="monospace" font-size="7">1ms</text>

  <text x="1110" y="375" fill="#64748b" font-family="monospace" font-size="8">└ payment-svc</text>
  <rect x="1200" y="365" width="290" height="15" rx="4" fill="#f1f5f9"/>
  <rect x="1425" y="365" width="55" height="15" rx="4" fill="#415063" fill-opacity="0.2"/>
  <text x="1500" y="376" text-anchor="end" fill="#94a3b8" font-family="monospace" font-size="7">8ms</text>

  <text x="1110" y="405" fill="#94a3b8" font-family="monospace" font-size="8">└ notify (async)</text>
  <rect x="1200" y="395" width="290" height="15" rx="4" fill="#f1f5f9"/>
  <rect x="1475" y="395" width="14" height="15" rx="4" fill="#415063" fill-opacity="0.1"/>
  <text x="1500" y="406" text-anchor="end" fill="#94a3b8" font-family="monospace" font-size="7">async</text>

  <!-- Timeline ruler -->
  <line x1="1200" y1="425" x2="1490" y2="425" stroke="#e2e8f0" stroke-width="1"/>
  <text x="1200" y="440" fill="#94a3b8" font-family="monospace" font-size="6">0ms</text>
  <text x="1300" y="440" fill="#94a3b8" font-family="monospace" font-size="6">15ms</text>
  <text x="1400" y="440" fill="#94a3b8" font-family="monospace" font-size="6">30ms</text>
  <text x="1480" y="440" fill="#94a3b8" font-family="monospace" font-size="6">47ms</text>

  <!-- Structured Logs -->
  <rect x="1085" y="455" width="440" height="130" rx="8" fill="#f8fafc" stroke="#e2e8f0" stroke-width="1"/>
  <text x="1100" y="475" fill="#64748b" font-family="monospace" font-size="7" font-weight="600" letter-spacing="2">STRUCTURED LOGS</text>
  <text x="1100" y="494" fill="#64748b" font-family="monospace" font-size="7.5">INFO  order-svc  OrderCreated {id:7821, total:45000}</text>
  <text x="1100" y="510" fill="#64748b" font-family="monospace" font-size="7.5">INFO  payment   PaymentProcessed {ref:7821, CARD}</text>
  <text x="1100" y="526" fill="#34d399" font-family="monospace" font-size="7.5">INFO  notify    EmailQueued {to:user@.., receipt}</text>
  <text x="1100" y="542" fill="#94a3b8" font-family="monospace" font-size="7.5">DEBUG gateway   ResponseSent {status:200, 47ms}</text>
  <text x="1100" y="558" fill="#f59e0b" font-family="monospace" font-size="7.5">WARN  cache     MissRate elevated {rate:12%}</text>
  <text x="1100" y="574" fill="#94a3b8" font-family="monospace" font-size="7.5">INFO  order-svc  HealthCheck {status:UP}</text>

  <!-- ═══ Bottom tech stack ═══ -->
  <rect x="60" y="630" width="1480" height="55" rx="12" fill="#ffffff" filter="url(#shadowSm)"/>
  <g transform="translate(180,658)">
    <rect x="-50" y="-14" width="100" height="28" rx="6" fill="#f1f5f9" stroke="#e2e8f0" stroke-width="1"/>
    <text text-anchor="middle" y="4" fill="#415063" font-family="monospace" font-size="9" font-weight="600">Prometheus</text>
  </g>
  <g transform="translate(340,658)">
    <rect x="-40" y="-14" width="80" height="28" rx="6" fill="#f1f5f9" stroke="#e2e8f0" stroke-width="1"/>
    <text text-anchor="middle" y="4" fill="#415063" font-family="monospace" font-size="9" font-weight="600">Grafana</text>
  </g>
  <g transform="translate(470,658)">
    <rect x="-35" y="-14" width="70" height="28" rx="6" fill="#f1f5f9" stroke="#e2e8f0" stroke-width="1"/>
    <text text-anchor="middle" y="4" fill="#415063" font-family="monospace" font-size="9" font-weight="600">Zipkin</text>
  </g>
  <g transform="translate(600,658)">
    <rect x="-48" y="-14" width="96" height="28" rx="6" fill="#f1f5f9" stroke="#e2e8f0" stroke-width="1"/>
    <text text-anchor="middle" y="4" fill="#415063" font-family="monospace" font-size="9" font-weight="600">Micrometer</text>
  </g>
  <g transform="translate(750,658)">
    <rect x="-50" y="-14" width="100" height="28" rx="6" fill="#f1f5f9" stroke="#e2e8f0" stroke-width="1"/>
    <text text-anchor="middle" y="4" fill="#415063" font-family="monospace" font-size="9" font-weight="600">Spring Boot</text>
  </g>
  <g transform="translate(900,658)">
    <rect x="-35" y="-14" width="70" height="28" rx="6" fill="#f1f5f9" stroke="#e2e8f0" stroke-width="1"/>
    <text text-anchor="middle" y="4" fill="#415063" font-family="monospace" font-size="9" font-weight="600">Docker</text>
  </g>
  <g transform="translate(1040,658)">
    <rect x="-48" y="-14" width="96" height="28" rx="6" fill="#f1f5f9" stroke="#e2e8f0" stroke-width="1"/>
    <text text-anchor="middle" y="4" fill="#415063" font-family="monospace" font-size="9" font-weight="600">Kubernetes</text>
  </g>
  <g transform="translate(1190,658)">
    <rect x="-40" y="-14" width="80" height="28" rx="6" fill="#f1f5f9" stroke="#e2e8f0" stroke-width="1"/>
    <text text-anchor="middle" y="4" fill="#415063" font-family="monospace" font-size="9" font-weight="600">Logback</text>
  </g>
  <g transform="translate(1350,658)">
    <rect x="-50" y="-14" width="100" height="28" rx="6" fill="#f1f5f9" stroke="#e2e8f0" stroke-width="1"/>
    <text text-anchor="middle" y="4" fill="#415063" font-family="monospace" font-size="9" font-weight="600">PostgreSQL</text>
  </g>

  <!-- ═══ Bottom stats ═══ -->
  <rect x="60" y="710" width="1480" height="80" rx="12" fill="#ffffff" filter="url(#shadowSm)"/>

  <g transform="translate(260,750)">
    <text text-anchor="middle" y="-6" fill="#1e293b" font-family="system-ui,sans-serif" font-size="28" font-weight="800">3</text>
    <text text-anchor="middle" y="14" fill="#94a3b8" font-family="monospace" font-size="9" font-weight="600" letter-spacing="2">SERVICES</text>
  </g>
  <line x1="440" y1="725" x2="440" y2="775" stroke="#e2e8f0"/>
  <g transform="translate(600,750)">
    <text text-anchor="middle" y="-6" fill="#1e293b" font-family="system-ui,sans-serif" font-size="28" font-weight="800">99.95%</text>
    <text text-anchor="middle" y="14" fill="#94a3b8" font-family="monospace" font-size="9" font-weight="600" letter-spacing="2">UPTIME</text>
  </g>
  <line x1="780" y1="725" x2="780" y2="775" stroke="#e2e8f0"/>
  <g transform="translate(940,750)">
    <text text-anchor="middle" y="-6" fill="#34d399" font-family="system-ui,sans-serif" font-size="28" font-weight="800">47ms</text>
    <text text-anchor="middle" y="14" fill="#34d399" font-family="monospace" font-size="9" font-weight="600" letter-spacing="2">AVG LATENCY</text>
  </g>
  <line x1="1120" y1="725" x2="1120" y2="775" stroke="#e2e8f0"/>
  <g transform="translate(1300,750)">
    <text text-anchor="middle" y="-6" fill="#415063" font-family="system-ui,sans-serif" font-size="14" font-weight="700">Full Observability</text>
    <text text-anchor="middle" y="14" fill="#94a3b8" font-family="monospace" font-size="9" font-weight="600" letter-spacing="2">METRICS · TRACES · LOGS</text>
  </g>

  <!-- Corner accents -->
  <rect x="60" y="820" width="1480" height="4" rx="2" fill="#415063" fill-opacity="0.08"/>
</svg>