<svg width="1600" height="900" viewBox="0 0 1600 900" fill="none" xmlns="http://www.w3.org/2000/svg">
  <defs>
    <radialGradient id="bgGlow" cx="50%" cy="42%" r="60%">
      <stop offset="0%" stop-color="#120e0a"/>
      <stop offset="50%" stop-color="#0a0806"/>
      <stop offset="100%" stop-color="#050403"/>
    </radialGradient>
    <radialGradient id="nodeGlow" cx="50%" cy="50%" r="50%">
      <stop offset="0%" stop-color="#B66A3C" stop-opacity="0.18"/>
      <stop offset="100%" stop-color="#B66A3C" stop-opacity="0"/>
    </radialGradient>
    <linearGradient id="pipeH" x1="0%" y1="0%" x2="100%" y2="0%">
      <stop offset="0%" stop-color="#B66A3C" stop-opacity="0"/>
      <stop offset="20%" stop-color="#B66A3C" stop-opacity="0.45"/>
      <stop offset="80%" stop-color="#B66A3C" stop-opacity="0.45"/>
      <stop offset="100%" stop-color="#B66A3C" stop-opacity="0"/>
    </linearGradient>
    <linearGradient id="pipeV" x1="0%" y1="0%" x2="0%" y2="100%">
      <stop offset="0%" stop-color="#B66A3C" stop-opacity="0.5"/>
      <stop offset="100%" stop-color="#B66A3C" stop-opacity="0.05"/>
    </linearGradient>
    <linearGradient id="titleGrad" x1="0%" y1="0%" x2="100%" y2="100%">
      <stop offset="0%" stop-color="#ffffff"/>
      <stop offset="60%" stop-color="#e8c9a8"/>
      <stop offset="100%" stop-color="#B66A3C"/>
    </linearGradient>
    <filter id="glow">
      <feGaussianBlur stdDeviation="6" result="b"/>
      <feMerge><feMergeNode in="b"/><feMergeNode in="SourceGraphic"/></feMerge>
    </filter>
    <filter id="softGlow">
      <feGaussianBlur stdDeviation="16" result="b"/>
      <feMerge><feMergeNode in="b"/><feMergeNode in="SourceGraphic"/></feMerge>
    </filter>
    <filter id="bigGlow"><feGaussianBlur stdDeviation="50"/></filter>
    <pattern id="grid" width="50" height="50" patternUnits="userSpaceOnUse">
      <path d="M 50 0 L 0 0 0 50" fill="none" stroke="#B66A3C" stroke-opacity="0.03" stroke-width="0.5"/>
    </pattern>
  </defs>

  <!-- ═══ BACKGROUND ═══ -->
  <rect width="1600" height="900" fill="url(#bgGlow)"/>
  <rect width="1600" height="900" fill="url(#grid)"/>
  <!-- Central ambient glow -->
  <ellipse cx="800" cy="380" rx="500" ry="300" fill="#B66A3C" opacity="0.035" filter="url(#bigGlow)"/>

  <!-- ═══ EXTERNAL SOURCES — 5 abstract client nodes (top) ═══ -->
  <!-- These represent external systems/clients, NOT hospitals -->

  <!-- Source 1 -->
  <g transform="translate(220,165)">
    <rect x="-38" y="-20" width="76" height="40" rx="8" fill="#0c0906" stroke="#B66A3C" stroke-opacity="0.22" stroke-width="1"/>
    <rect x="-38" y="-20" width="76" height="40" rx="8" fill="#B66A3C" fill-opacity="0.03"/>
    <!-- Terminal cursor icon -->
    <text x="-16" y="3" fill="#B66A3C" fill-opacity="0.55" font-family="monospace" font-size="11" font-weight="600">&gt;_</text>
    <text x="6" y="2" fill="#e8c9a8" fill-opacity="0.5" font-family="system-ui,sans-serif" font-size="8" font-weight="500">API</text>
    <text y="32" text-anchor="middle" fill="#B66A3C" fill-opacity="0.25" font-family="system-ui,sans-serif" font-size="7" letter-spacing="2">CLIENT A</text>
  </g>

  <!-- Source 2 -->
  <g transform="translate(440,110)">
    <rect x="-38" y="-20" width="76" height="40" rx="8" fill="#0c0906" stroke="#B66A3C" stroke-opacity="0.22" stroke-width="1"/>
    <rect x="-38" y="-20" width="76" height="40" rx="8" fill="#B66A3C" fill-opacity="0.03"/>
    <text x="-18" y="3" fill="#B66A3C" fill-opacity="0.55" font-family="monospace" font-size="10" font-weight="600">SFTP</text>
    <text y="32" text-anchor="middle" fill="#B66A3C" fill-opacity="0.25" font-family="system-ui,sans-serif" font-size="7" letter-spacing="2">CLIENT B</text>
  </g>

  <!-- Source 3 -->
  <g transform="translate(710,80)">
    <rect x="-38" y="-20" width="76" height="40" rx="8" fill="#0c0906" stroke="#B66A3C" stroke-opacity="0.25" stroke-width="1.2"/>
    <rect x="-38" y="-20" width="76" height="40" rx="8" fill="#B66A3C" fill-opacity="0.04"/>
    <text x="-16" y="3" fill="#B66A3C" fill-opacity="0.55" font-family="monospace" font-size="10" font-weight="600">FTP</text>
    <text y="32" text-anchor="middle" fill="#B66A3C" fill-opacity="0.25" font-family="system-ui,sans-serif" font-size="7" letter-spacing="2">CLIENT C</text>
  </g>

  <!-- Source 4 -->
  <g transform="translate(960,80)">
    <rect x="-38" y="-20" width="76" height="40" rx="8" fill="#0c0906" stroke="#B66A3C" stroke-opacity="0.25" stroke-width="1.2"/>
    <rect x="-38" y="-20" width="76" height="40" rx="8" fill="#B66A3C" fill-opacity="0.04"/>
    <text x="-16" y="3" fill="#B66A3C" fill-opacity="0.55" font-family="monospace" font-size="10" font-weight="600">SMB</text>
    <text y="32" text-anchor="middle" fill="#B66A3C" fill-opacity="0.25" font-family="system-ui,sans-serif" font-size="7" letter-spacing="2">CLIENT D</text>
  </g>

  <!-- Source 5 -->
  <g transform="translate(1200,110)">
    <rect x="-38" y="-20" width="76" height="40" rx="8" fill="#0c0906" stroke="#B66A3C" stroke-opacity="0.22" stroke-width="1"/>
    <rect x="-38" y="-20" width="76" height="40" rx="8" fill="#B66A3C" fill-opacity="0.03"/>
    <text x="-16" y="3" fill="#B66A3C" fill-opacity="0.55" font-family="monospace" font-size="10" font-weight="600">XML</text>
    <text y="32" text-anchor="middle" fill="#B66A3C" fill-opacity="0.25" font-family="system-ui,sans-serif" font-size="7" letter-spacing="2">CLIENT E</text>
  </g>

  <!-- ═══ CONNECTION LINES: Sources → Gateway ═══ -->
  <path d="M 220 185 C 300 220, 500 260, 620 280" stroke="#B66A3C" stroke-opacity="0.15" stroke-width="1" stroke-dasharray="4 6"/>
  <path d="M 440 130 C 500 180, 560 240, 640 275" stroke="#B66A3C" stroke-opacity="0.15" stroke-width="1" stroke-dasharray="4 6"/>
  <path d="M 710 100 L 740 270" stroke="#B66A3C" stroke-opacity="0.18" stroke-width="1" stroke-dasharray="4 6"/>
  <path d="M 960 100 L 860 270" stroke="#B66A3C" stroke-opacity="0.18" stroke-width="1" stroke-dasharray="4 6"/>
  <path d="M 1200 130 C 1100 180, 1000 240, 900 275" stroke="#B66A3C" stroke-opacity="0.15" stroke-width="1" stroke-dasharray="4 6"/>

  <!-- Data particles flowing to gateway -->
  <circle r="2.5" fill="#B66A3C" opacity="0.7" filter="url(#glow)">
    <animateMotion dur="3s" repeatCount="indefinite" path="M 220 185 C 300 220, 500 260, 620 280"/>
  </circle>
  <circle r="2" fill="#e8c9a8" opacity="0.5">
    <animateMotion dur="2.6s" repeatCount="indefinite" path="M 440 130 C 500 180, 560 240, 640 275"/>
  </circle>
  <circle r="2.5" fill="#B66A3C" opacity="0.7" filter="url(#glow)">
    <animateMotion dur="2.2s" repeatCount="indefinite" path="M 710 100 L 740 270"/>
  </circle>
  <circle r="2" fill="#e8c9a8" opacity="0.5">
    <animateMotion dur="2.4s" repeatCount="indefinite" path="M 960 100 L 860 270"/>
  </circle>
  <circle r="2.5" fill="#B66A3C" opacity="0.7" filter="url(#glow)">
    <animateMotion dur="3s" repeatCount="indefinite" path="M 1200 130 C 1100 180, 1000 240, 900 275"/>
  </circle>

  <!-- ═══ API GATEWAY LAYER ═══ -->
  <g transform="translate(800,290)">
    <rect x="-200" y="-18" width="400" height="36" rx="8" fill="#0c0906" stroke="#B66A3C" stroke-opacity="0.3" stroke-width="1.5"/>
    <rect x="-200" y="-18" width="400" height="36" rx="8" fill="#B66A3C" fill-opacity="0.04"/>
    <!-- Subtle inner line -->
    <line x1="-180" y1="-17" x2="180" y2="-17" stroke="#B66A3C" stroke-opacity="0.08" stroke-width="0.5"/>
    <text text-anchor="middle" y="1" fill="#B66A3C" fill-opacity="0.45" font-family="monospace" font-size="10" font-weight="600" letter-spacing="6">PROTOCOL ADAPTER GATEWAY</text>
    <!-- Blinking status dot -->
    <circle cx="-175" cy="0" r="3" fill="#34d399" opacity="0.6">
      <animate attributeName="opacity" values="0.3;0.8;0.3" dur="2s" repeatCount="indefinite"/>
    </circle>
    <circle cx="175" cy="0" r="3" fill="#34d399" opacity="0.6">
      <animate attributeName="opacity" values="0.3;0.8;0.3" dur="2s" repeatCount="indefinite" begin="1s"/>
    </circle>
  </g>

  <!-- ═══ GATEWAY → CORE SERVICES CONNECTOR ═══ -->
  <line x1="800" y1="310" x2="800" y2="370" stroke="url(#pipeV)" stroke-width="1.5" stroke-dasharray="3 4"/>
  <circle r="2" fill="#B66A3C" opacity="0.7">
    <animateMotion dur="1.5s" repeatCount="indefinite" path="M 800 310 L 800 370"/>
  </circle>

  <!-- ═══ CORE BACKEND SERVICES (center — the star) ═══ -->
  <!-- Outer glow -->
  <ellipse cx="800" cy="440" rx="280" ry="80" fill="url(#nodeGlow)" filter="url(#softGlow)"/>

  <!-- Main service container -->
  <rect x="520" y="375" width="560" height="130" rx="18" fill="#0c0906" stroke="#B66A3C" stroke-opacity="0.28" stroke-width="2"/>
  <rect x="520" y="375" width="560" height="130" rx="18" fill="#B66A3C" fill-opacity="0.03"/>

  <!-- Container top accent line -->
  <line x1="550" y1="376" x2="1050" y2="376" stroke="#B66A3C" stroke-opacity="0.12" stroke-width="1"/>

  <!-- Container label -->
  <text x="800" y="398" text-anchor="middle" fill="#B66A3C" fill-opacity="0.3" font-family="monospace" font-size="8" font-weight="500" letter-spacing="5">SPRING BOOT · BACKEND CORE</text>

  <!-- Service 1: Data Collector -->
  <g transform="translate(600,448)">
    <rect x="-52" y="-28" width="104" height="56" rx="10" fill="#0a0806" stroke="#B66A3C" stroke-opacity="0.2" stroke-width="1"/>
    <rect x="-52" y="-28" width="104" height="56" rx="10" fill="#B66A3C" fill-opacity="0.04"/>
    <!-- DB cylinder icon -->
    <ellipse cx="-22" cy="-8" rx="8" ry="4" fill="none" stroke="#B66A3C" stroke-opacity="0.45" stroke-width="0.8"/>
    <path d="M -30 -8 L -30 2 Q -22 8 -14 2 L -14 -8" fill="none" stroke="#B66A3C" stroke-opacity="0.35" stroke-width="0.8"/>
    <text x="6" y="-4" fill="#e8c9a8" fill-opacity="0.6" font-family="system-ui,sans-serif" font-size="8" font-weight="600">Data</text>
    <text x="6" y="8" fill="#e8c9a8" fill-opacity="0.45" font-family="system-ui,sans-serif" font-size="8" font-weight="500">Collector</text>
    <text y="42" text-anchor="middle" fill="#34d399" fill-opacity="0.4" font-family="monospace" font-size="7">RUNNING</text>
  </g>

  <!-- Service 2: Processor -->
  <g transform="translate(760,448)">
    <rect x="-52" y="-28" width="104" height="56" rx="10" fill="#0a0806" stroke="#B66A3C" stroke-opacity="0.25" stroke-width="1.2"/>
    <rect x="-52" y="-28" width="104" height="56" rx="10" fill="#B66A3C" fill-opacity="0.06"/>
    <!-- Gear icon -->
    <circle cx="-22" cy="-2" r="8" fill="none" stroke="#B66A3C" stroke-opacity="0.5" stroke-width="0.8"/>
    <circle cx="-22" cy="-2" r="3" fill="#B66A3C" fill-opacity="0.2"/>
    <!-- Gear teeth hint -->
    <line x1="-22" y1="-12" x2="-22" y2="-9" stroke="#B66A3C" stroke-opacity="0.3" stroke-width="1.5"/>
    <line x1="-22" y1="5" x2="-22" y2="8" stroke="#B66A3C" stroke-opacity="0.3" stroke-width="1.5"/>
    <line x1="-14" y1="-2" x2="-11" y2="-2" stroke="#B66A3C" stroke-opacity="0.3" stroke-width="1.5"/>
    <line x1="-33" y1="-2" x2="-30" y2="-2" stroke="#B66A3C" stroke-opacity="0.3" stroke-width="1.5"/>
    <text x="6" y="-4" fill="#e8c9a8" fill-opacity="0.65" font-family="system-ui,sans-serif" font-size="8" font-weight="600">Business</text>
    <text x="6" y="8" fill="#e8c9a8" fill-opacity="0.5" font-family="system-ui,sans-serif" font-size="8" font-weight="500">Logic</text>
    <text y="42" text-anchor="middle" fill="#34d399" fill-opacity="0.4" font-family="monospace" font-size="7">RUNNING</text>
  </g>

  <!-- Service 3: Report Engine -->
  <g transform="translate(920,448)">
    <rect x="-52" y="-28" width="104" height="56" rx="10" fill="#0a0806" stroke="#B66A3C" stroke-opacity="0.2" stroke-width="1"/>
    <rect x="-52" y="-28" width="104" height="56" rx="10" fill="#B66A3C" fill-opacity="0.04"/>
    <!-- Document/export icon -->
    <rect x="-28" y="-12" width="12" height="16" rx="2" fill="none" stroke="#B66A3C" stroke-opacity="0.45" stroke-width="0.8"/>
    <polyline points="-22,-12 -22,-15 -16,-15 -16,-12" fill="none" stroke="#B66A3C" stroke-opacity="0.3" stroke-width="0.8"/>
    <line x1="-25" y1="-6" x2="-19" y2="-6" stroke="#B66A3C" stroke-opacity="0.3" stroke-width="0.6"/>
    <line x1="-25" y1="-2" x2="-19" y2="-2" stroke="#B66A3C" stroke-opacity="0.3" stroke-width="0.6"/>
    <line x1="-25" y1="2" x2="-21" y2="2" stroke="#B66A3C" stroke-opacity="0.3" stroke-width="0.6"/>
    <text x="6" y="-4" fill="#e8c9a8" fill-opacity="0.6" font-family="system-ui,sans-serif" font-size="8" font-weight="600">Report</text>
    <text x="6" y="8" fill="#e8c9a8" fill-opacity="0.45" font-family="system-ui,sans-serif" font-size="8" font-weight="500">Engine</text>
    <text y="42" text-anchor="middle" fill="#34d399" fill-opacity="0.4" font-family="monospace" font-size="7">RUNNING</text>
  </g>

  <!-- Inter-service arrows -->
  <path d="M 652 448 L 696 448" stroke="#B66A3C" stroke-opacity="0.2" stroke-width="1"/>
  <polygon points="696,445 704,448 696,451" fill="#B66A3C" fill-opacity="0.25"/>
  <path d="M 812 448 L 856 448" stroke="#B66A3C" stroke-opacity="0.2" stroke-width="1"/>
  <polygon points="856,445 864,448 856,451" fill="#B66A3C" fill-opacity="0.25"/>

  <!-- ═══ CORE → OUTPUT LAYER ═══ -->
  <line x1="800" y1="510" x2="800" y2="570" stroke="url(#pipeV)" stroke-width="1.5" stroke-dasharray="3 4"/>
  <circle r="2" fill="#B66A3C" opacity="0.7">
    <animateMotion dur="1.5s" repeatCount="indefinite" path="M 800 510 L 800 570"/>
  </circle>

  <!-- ═══ OUTPUT LAYER ═══ -->
  <g transform="translate(800,590)">
    <rect x="-200" y="-18" width="400" height="36" rx="8" fill="#0c0906" stroke="#B66A3C" stroke-opacity="0.22" stroke-width="1"/>
    <rect x="-200" y="-18" width="400" height="36" rx="8" fill="#B66A3C" fill-opacity="0.03"/>
    <line x1="-180" y1="-17" x2="180" y2="-17" stroke="#B66A3C" stroke-opacity="0.06" stroke-width="0.5"/>
    <text text-anchor="middle" y="1" fill="#B66A3C" fill-opacity="0.4" font-family="monospace" font-size="10" font-weight="600" letter-spacing="6">EXTERNAL SYSTEM DELIVERY</text>
    <circle cx="-175" cy="0" r="3" fill="#34d399" opacity="0.5">
      <animate attributeName="opacity" values="0.2;0.7;0.2" dur="2.5s" repeatCount="indefinite"/>
    </circle>
    <circle cx="175" cy="0" r="3" fill="#34d399" opacity="0.5">
      <animate attributeName="opacity" values="0.2;0.7;0.2" dur="2.5s" repeatCount="indefinite" begin="1.2s"/>
    </circle>
  </g>

  <!-- ═══ SIDE PANELS — PostgreSQL + Config ═══ -->

  <!-- LEFT: Database -->
  <g transform="translate(320,440)">
    <rect x="-65" y="-35" width="130" height="70" rx="12" fill="#0c0906" stroke="#B66A3C" stroke-opacity="0.15" stroke-width="1"/>
    <rect x="-65" y="-35" width="130" height="70" rx="12" fill="#B66A3C" fill-opacity="0.02"/>
    <!-- DB cylinder -->
    <ellipse cx="-28" cy="-8" rx="12" ry="6" fill="none" stroke="#B66A3C" stroke-opacity="0.35" stroke-width="1"/>
    <path d="M -40 -8 L -40 8 Q -28 16 -16 8 L -16 -8" fill="none" stroke="#B66A3C" stroke-opacity="0.3" stroke-width="1"/>
    <ellipse cx="-28" cy="0" rx="12" ry="6" fill="none" stroke="#B66A3C" stroke-opacity="0.1" stroke-width="0.5"/>
    <text x="8" y="-5" fill="#e8c9a8" fill-opacity="0.5" font-family="system-ui,sans-serif" font-size="9" font-weight="600">PostgreSQL</text>
    <text x="8" y="10" fill="#B66A3C" fill-opacity="0.3" font-family="monospace" font-size="7">+ Flyway</text>
  </g>
  <!-- DB connector -->
  <path d="M 385 440 L 516 440" stroke="#B66A3C" stroke-opacity="0.12" stroke-width="1" stroke-dasharray="3 5"/>

  <!-- RIGHT: Object Storage -->
  <g transform="translate(1280,440)">
    <rect x="-65" y="-35" width="130" height="70" rx="12" fill="#0c0906" stroke="#B66A3C" stroke-opacity="0.15" stroke-width="1"/>
    <rect x="-65" y="-35" width="130" height="70" rx="12" fill="#B66A3C" fill-opacity="0.02"/>
    <!-- Cloud/bucket icon -->
    <path d="M -34 0 Q -34 -12 -22 -12 Q -16 -20 -8 -12 Q 2 -14 2 -4 Q 8 -4 8 2 Q 8 8 -34 8 Q -40 4 -34 0 Z" fill="none" stroke="#B66A3C" stroke-opacity="0.35" stroke-width="0.8"/>
    <text x="18" y="-5" fill="#e8c9a8" fill-opacity="0.5" font-family="system-ui,sans-serif" font-size="9" font-weight="600">S3 / R2</text>
    <text x="18" y="10" fill="#B66A3C" fill-opacity="0.3" font-family="monospace" font-size="7">Storage</text>
  </g>
  <!-- Storage connector -->
  <path d="M 1080 440 L 1215 440" stroke="#B66A3C" stroke-opacity="0.12" stroke-width="1" stroke-dasharray="3 5"/>

  <!-- ═══ STATS BAR (bottom) ═══ -->
  <rect x="260" y="700" width="1080" height="90" rx="16" fill="#0a0806" stroke="#B66A3C" stroke-opacity="0.12" stroke-width="1"/>
  <rect x="260" y="700" width="1080" height="90" rx="16" fill="#B66A3C" fill-opacity="0.02"/>

  <!-- Stat 1: Integrations -->
  <g transform="translate(430,745)">
    <text text-anchor="middle" y="-8" fill="url(#titleGrad)" font-family="system-ui,sans-serif" font-size="28" font-weight="800">5</text>
    <text text-anchor="middle" y="14" fill="#B66A3C" fill-opacity="0.4" font-family="system-ui,sans-serif" font-size="9" font-weight="500" letter-spacing="2">INTEGRATIONS</text>
  </g>
  <line x1="570" y1="718" x2="570" y2="772" stroke="#B66A3C" stroke-opacity="0.08" stroke-width="1"/>

  <!-- Stat 2: Live Records -->
  <g transform="translate(700,745)">
    <text text-anchor="middle" y="-8" fill="url(#titleGrad)" font-family="system-ui,sans-serif" font-size="28" font-weight="800">530+</text>
    <text text-anchor="middle" y="14" fill="#B66A3C" fill-opacity="0.4" font-family="system-ui,sans-serif" font-size="9" font-weight="500" letter-spacing="2">LIVE RECORDS</text>
  </g>
  <line x1="840" y1="718" x2="840" y2="772" stroke="#B66A3C" stroke-opacity="0.08" stroke-width="1"/>

  <!-- Stat 3: Zero Incidents (green highlight) -->
  <g transform="translate(960,745)">
    <circle r="28" fill="#34d399" opacity="0.04" filter="url(#softGlow)"/>
    <text text-anchor="middle" y="-8" font-family="system-ui,sans-serif" font-size="28" font-weight="800" fill="#34d399">0</text>
    <text text-anchor="middle" y="14" fill="#34d399" fill-opacity="0.5" font-family="system-ui,sans-serif" font-size="9" font-weight="500" letter-spacing="2">INCIDENTS</text>
  </g>
  <line x1="1100" y1="718" x2="1100" y2="772" stroke="#B66A3C" stroke-opacity="0.08" stroke-width="1"/>

  <!-- Stat 4: Multi-Protocol -->
  <g transform="translate(1200,745)">
    <text text-anchor="middle" y="-8" fill="url(#titleGrad)" font-family="system-ui,sans-serif" font-size="13" font-weight="700" letter-spacing="1.5">API · SFTP · FTP · SMB</text>
    <text text-anchor="middle" y="14" fill="#B66A3C" fill-opacity="0.4" font-family="system-ui,sans-serif" font-size="9" font-weight="500" letter-spacing="2">PROTOCOLS</text>
  </g>

  <!-- ═══ DECORATIVE ═══ -->
  <!-- Floating particles -->
  <circle cx="130" cy="400" r="1.2" fill="#B66A3C" opacity="0.2">
    <animate attributeName="cy" values="400;385;400" dur="5s" repeatCount="indefinite"/>
  </circle>
  <circle cx="1470" cy="380" r="1.2" fill="#B66A3C" opacity="0.2">
    <animate attributeName="cy" values="380;365;380" dur="4.5s" repeatCount="indefinite"/>
  </circle>
  <circle cx="180" cy="600" r="1" fill="#e8c9a8" opacity="0.12">
    <animate attributeName="cy" values="600;590;600" dur="6s" repeatCount="indefinite"/>
  </circle>
  <circle cx="1420" cy="580" r="1" fill="#e8c9a8" opacity="0.12">
    <animate attributeName="cy" values="580;570;580" dur="5.5s" repeatCount="indefinite"/>
  </circle>

  <!-- Corner brackets -->
  <path d="M 40 40 L 90 40" stroke="#B66A3C" stroke-opacity="0.1" stroke-width="0.8"/>
  <path d="M 40 40 L 40 90" stroke="#B66A3C" stroke-opacity="0.1" stroke-width="0.8"/>
  <path d="M 1560 40 L 1510 40" stroke="#B66A3C" stroke-opacity="0.1" stroke-width="0.8"/>
  <path d="M 1560 40 L 1560 90" stroke="#B66A3C" stroke-opacity="0.1" stroke-width="0.8"/>
  <path d="M 40 860 L 90 860" stroke="#B66A3C" stroke-opacity="0.1" stroke-width="0.8"/>
  <path d="M 40 860 L 40 810" stroke="#B66A3C" stroke-opacity="0.1" stroke-width="0.8"/>
  <path d="M 1560 860 L 1510 860" stroke="#B66A3C" stroke-opacity="0.1" stroke-width="0.8"/>
  <path d="M 1560 860 L 1560 810" stroke="#B66A3C" stroke-opacity="0.1" stroke-width="0.8"/>

  <!-- Subtle scan line -->
  <rect x="0" y="0" width="1600" height="1.5" fill="#B66A3C" opacity="0.02">
    <animate attributeName="y" values="0;900;0" dur="10s" repeatCount="indefinite"/>
  </rect>
</svg>