<svg xmlns="http://www.w3.org/2000/svg" viewBox="0 0 1200 630" width="1200" height="630">
  <defs>
    <linearGradient id="bg" x1="0%" y1="0%" x2="100%" y2="100%">
      <stop offset="0%" style="stop-color:#020810"/>
      <stop offset="100%" style="stop-color:#050D18"/>
    </linearGradient>
    <linearGradient id="feedBg" x1="0%" y1="0%" x2="100%" y2="100%">
      <stop offset="0%" style="stop-color:#0A141E"/>
      <stop offset="100%" style="stop-color:#060E16"/>
    </linearGradient>
    <linearGradient id="heatA" x1="0%" y1="0%" x2="100%" y2="100%">
      <stop offset="0%" style="stop-color:#FF4400;stop-opacity:0.35"/>
      <stop offset="100%" style="stop-color:#FF4400;stop-opacity:0"/>
    </linearGradient>
    <linearGradient id="heatB" x1="0%" y1="0%" x2="100%" y2="100%">
      <stop offset="0%" style="stop-color:#FF8800;stop-opacity:0.25"/>
      <stop offset="100%" style="stop-color:#FF8800;stop-opacity:0"/>
    </linearGradient>
    <linearGradient id="heatC" x1="0%" y1="0%" x2="100%" y2="100%">
      <stop offset="0%" style="stop-color:#FFCC00;stop-opacity:0.2"/>
      <stop offset="100%" style="stop-color:#FFCC00;stop-opacity:0"/>
    </linearGradient>
    <linearGradient id="statBar" x1="0%" y1="0%" x2="100%" y2="0%">
      <stop offset="0%" style="stop-color:#4A7FA0;stop-opacity:0"/>
      <stop offset="50%" style="stop-color:#4A7FA0;stop-opacity:0.4"/>
      <stop offset="100%" style="stop-color:#4A7FA0;stop-opacity:0"/>
    </linearGradient>
    <filter id="boxGlow" x="-30%" y="-30%" width="160%" height="160%">
      <feGaussianBlur in="SourceGraphic" stdDeviation="2.5" result="b"/>
      <feMerge><feMergeNode in="b"/><feMergeNode in="SourceGraphic"/></feMerge>
    </filter>
    <filter id="bigGlow" x="-60%" y="-60%" width="220%" height="220%">
      <feGaussianBlur in="SourceGraphic" stdDeviation="14" result="b"/>
      <feMerge><feMergeNode in="b"/><feMergeNode in="SourceGraphic"/></feMerge>
    </filter>
    <filter id="titleGlow" x="-10%" y="-30%" width="120%" height="160%">
      <feGaussianBlur in="SourceGraphic" stdDeviation="3.5" result="b"/>
      <feMerge><feMergeNode in="b"/><feMergeNode in="SourceGraphic"/></feMerge>
    </filter>
    <pattern id="scanlines" width="1" height="4" patternUnits="userSpaceOnUse">
      <rect width="1" height="1" fill="#000" fill-opacity="0.18"/>
    </pattern>
    <pattern id="grid" width="32" height="32" patternUnits="userSpaceOnUse">
      <path d="M32 0L0 0 0 32" fill="none" stroke="#4A7FA0" stroke-width="0.2" stroke-opacity="0.12"/>
    </pattern>
    <clipPath id="feed1"><rect x="28" y="100" width="338" height="222"/></clipPath>
    <clipPath id="feed2"><rect x="378" y="100" width="338" height="222"/></clipPath>
    <clipPath id="feed3"><rect x="28" y="334" width="338" height="222"/></clipPath>
    <clipPath id="feed4"><rect x="378" y="334" width="338" height="222"/></clipPath>
  </defs>

  <!-- Background -->
  <rect width="1200" height="630" fill="url(#bg)"/>
  <rect width="1200" height="630" fill="url(#grid)"/>

  <!-- ─── TOP BAR ─── -->
  <rect x="0" y="0" width="1200" height="44" fill="#020810" fill-opacity="0.95"/>
  <line x1="0" y1="44" x2="1200" y2="44" stroke="#4A7FA0" stroke-width="0.8" stroke-opacity="0.5"/>

  <!-- REC indicator -->
  <circle cx="24" cy="22" r="6" fill="#FF3030"/>
  <circle cx="24" cy="22" r="10" fill="#FF3030" fill-opacity="0.2"/>
  <text x="38" y="27" font-family="'Courier New', monospace" font-size="11" fill="#FF3030" letter-spacing="2">REC</text>

  <!-- Title -->
  <text x="600" y="27" text-anchor="middle" font-family="'Courier New', monospace" font-size="13" fill="#7BBDD4" font-weight="bold" letter-spacing="4" filter="url(#titleGlow)">CROWD ANALYSIS VISION SYSTEM</text>

  <!-- FPS counter -->
  <text x="920" y="20" font-family="'Courier New', monospace" font-size="9.5" fill="#4A7FA0" fill-opacity="0.5" letter-spacing="1">FPS</text>
  <text x="940" y="20" font-family="'Courier New', monospace" font-size="12" fill="#7BBDD4" font-weight="bold">29.8</text>
  <!-- RTSP badge -->
  <rect x="980" y="10" width="70" height="20" rx="3" fill="#4A7FA0" fill-opacity="0.15" stroke="#4A7FA0" stroke-width="0.8" stroke-opacity="0.5"/>
  <text x="993" y="24" font-family="'Courier New', monospace" font-size="9.5" fill="#7BBDD4" letter-spacing="1">RTSP</text>
  <!-- YOLOv8 badge -->
  <rect x="1058" y="10" width="80" height="20" rx="3" fill="#FFB800" fill-opacity="0.15" stroke="#FFB800" stroke-width="0.8" stroke-opacity="0.5"/>
  <text x="1067" y="24" font-family="'Courier New', monospace" font-size="9.5" fill="#FFB800" letter-spacing="1">YOLOv8</text>

  <!-- Resolution label -->
  <text x="850" y="32" font-family="'Courier New', monospace" font-size="9" fill="#4A7FA0" fill-opacity="0.45">1920×1080</text>

  <!-- ─── FEED 1: Detection scene (top-left) ─── -->
  <rect x="28" y="58" width="338" height="14" rx="0" fill="#0A141E"/>
  <text x="34" y="69" font-family="'Courier New', monospace" font-size="9" fill="#4A7FA0" fill-opacity="0.6" letter-spacing="1">CAM-01 · 정문 광장</text>
  <circle cx="356" cy="65" r="4" fill="#FF3030"/>

  <rect x="28" y="72" width="338" height="252" rx="4" fill="url(#feedBg)" stroke="#4A7FA0" stroke-width="1" stroke-opacity="0.4"/>

  <!-- Scanlines overlay on feed -->
  <rect x="28" y="72" width="338" height="252" fill="url(#scanlines)" rx="4" opacity="0.6"/>

  <!-- Crowd figure silhouettes (simplified polygons representing people) -->
  <!-- Person 1 group - crowd cluster left -->
  <rect x="50" y="140" width="18" height="48" rx="2" fill="#1A2A3A" stroke="#333" stroke-width="0.5"/>
  <ellipse cx="59" cy="134" rx="10" ry="12" fill="#1A2A3A" stroke="#333" stroke-width="0.5"/>
  <rect x="72" y="145" width="16" height="44" rx="2" fill="#1E2C3C" stroke="#333" stroke-width="0.5"/>
  <ellipse cx="80" cy="139" rx="9" ry="11" fill="#1E2C3C" stroke="#333" stroke-width="0.5"/>
  <rect x="92" y="148" width="17" height="46" rx="2" fill="#1A2835" stroke="#333" stroke-width="0.5"/>
  <ellipse cx="100" cy="142" rx="9" ry="11" fill="#1A2835" stroke="#333" stroke-width="0.5"/>
  <rect x="58" y="152" width="16" height="42" rx="2" fill="#182230"/>

  <!-- Person 2 group - mid -->
  <rect x="160" y="135" width="17" height="50" rx="2" fill="#1C2B3A"/>
  <ellipse cx="168" cy="129" rx="10" ry="12" fill="#1C2B3A"/>
  <rect x="183" y="140" width="16" height="46" rx="2" fill="#1A2838"/>
  <ellipse cx="191" cy="134" rx="9" ry="11" fill="#1A2838"/>
  <rect x="200" y="138" width="17" height="48" rx="2" fill="#1E2C3C"/>
  <ellipse cx="209" cy="132" rx="10" ry="12" fill="#1E2C3C"/>

  <!-- Person 3 group - right cluster -->
  <rect x="265" y="142" width="16" height="46" rx="2" fill="#1A2838"/>
  <ellipse cx="273" cy="136" rx="9" ry="11" fill="#1A2838"/>
  <rect x="285" y="138" width="17" height="50" rx="2" fill="#1C2C3E"/>
  <ellipse cx="293" cy="132" rx="10" ry="12" fill="#1C2C3E"/>
  <rect x="306" y="145" width="15" height="44" rx="2" fill="#182235"/>
  <ellipse cx="313" cy="139" rx="9" ry="10" fill="#182235"/>

  <!-- Ground plane -->
  <line x1="28" y1="210" x2="366" y2="210" stroke="#4A7FA0" stroke-width="0.4" stroke-opacity="0.2"/>
  <line x1="28" y1="230" x2="366" y2="230" stroke="#4A7FA0" stroke-width="0.3" stroke-opacity="0.15"/>
  <line x1="28" y1="250" x2="366" y2="250" stroke="#4A7FA0" stroke-width="0.25" stroke-opacity="0.1"/>

  <!-- Heatmap overlay -->
  <ellipse cx="80" cy="165" rx="55" ry="30" fill="url(#heatA)" opacity="0.7"/>
  <ellipse cx="190" cy="162" rx="50" ry="28" fill="url(#heatB)" opacity="0.7"/>
  <ellipse cx="288" cy="163" rx="45" ry="25" fill="url(#heatC)" opacity="0.7"/>

  <!-- YOLO bounding boxes -->
  <!-- Person box 1 -->
  <rect x="46" y="120" width="28" height="72" fill="none" stroke="#FFB800" stroke-width="1.5" filter="url(#boxGlow)"/>
  <rect x="46" y="110" width="68" height="12" fill="#FFB800" fill-opacity="0.85" rx="2"/>
  <text x="49" y="120" font-family="'Courier New', monospace" font-size="8.5" fill="#000" font-weight="bold">person 0.92</text>
  <text x="48" y="204" font-family="'Courier New', monospace" font-size="7.5" fill="#FFB800" fill-opacity="0.75">#001</text>

  <!-- Person box 2 -->
  <rect x="70" y="128" width="26" height="68" fill="none" stroke="#FFB800" stroke-width="1.5" filter="url(#boxGlow)"/>
  <text x="71" y="207" font-family="'Courier New', monospace" font-size="7.5" fill="#FFB800" fill-opacity="0.75">#002</text>

  <!-- Person box 3 tracked (green = confirmed track) -->
  <rect x="156" y="116" width="30" height="74" fill="none" stroke="#00C97A" stroke-width="1.5" filter="url(#boxGlow)"/>
  <rect x="156" y="105" width="76" height="12" fill="#00C97A" fill-opacity="0.85" rx="2"/>
  <text x="159" y="115" font-family="'Courier New', monospace" font-size="8.5" fill="#000" font-weight="bold">person 0.97</text>
  <text x="157" y="201" font-family="'Courier New', monospace" font-size="7.5" fill="#00C97A" fill-opacity="0.9">#003 tracked</text>

  <!-- Person box 4 -->
  <rect x="182" y="122" width="28" height="68" fill="none" stroke="#FFB800" stroke-width="1.5" filter="url(#boxGlow)"/>
  <text x="183" y="201" font-family="'Courier New', monospace" font-size="7.5" fill="#FFB800" fill-opacity="0.75">#004</text>

  <!-- Person box 5 tracked -->
  <rect x="196" y="118" width="30" height="72" fill="none" stroke="#00C97A" stroke-width="1.5" filter="url(#boxGlow)"/>
  <text x="197" y="201" font-family="'Courier New', monospace" font-size="7.5" fill="#00C97A" fill-opacity="0.9">#005</text>

  <!-- Person box 6 -->
  <rect x="261" y="124" width="26" height="68" fill="none" stroke="#FFB800" stroke-width="1.5" filter="url(#boxGlow)"/>
  <text x="262" y="203" font-family="'Courier New', monospace" font-size="7.5" fill="#FFB800" fill-opacity="0.75">#006</text>

  <!-- Person box 7 tracked -->
  <rect x="280" y="119" width="30" height="72" fill="none" stroke="#00C97A" stroke-width="1.5" filter="url(#boxGlow)"/>
  <rect x="280" y="108" width="76" height="12" fill="#00C97A" fill-opacity="0.85" rx="2"/>
  <text x="283" y="118" font-family="'Courier New', monospace" font-size="8.5" fill="#000" font-weight="bold">person 0.94</text>
  <text x="281" y="202" font-family="'Courier New', monospace" font-size="7.5" fill="#00C97A" fill-opacity="0.9">#007 tracked</text>

  <!-- ROI polygon (region of interest) -->
  <polygon points="38,215 100,175 260,172 340,218 290,310 60,308"
           fill="none" stroke="#4A7FA0" stroke-width="1.5" stroke-dasharray="6,3" stroke-opacity="0.7"/>
  <text x="175" y="310" text-anchor="middle" font-family="'Courier New', monospace" font-size="8" fill="#4A7FA0" fill-opacity="0.7" letter-spacing="1">ROI</text>

  <!-- Count overlay -->
  <rect x="30" y="74" width="72" height="20" rx="3" fill="#020810" fill-opacity="0.85"/>
  <text x="36" y="88" font-family="'Courier New', monospace" font-size="10" fill="#FFB800" font-weight="bold">COUNT: <tspan fill="#FFFFFF">7</tspan></text>

  <!-- Crosshair corner marks on feed -->
  <path d="M32,76 L32,84 M32,76 L40,76" stroke="#4A7FA0" stroke-width="1" stroke-opacity="0.6"/>
  <path d="M362,76 L362,84 M362,76 L354,76" stroke="#4A7FA0" stroke-width="1" stroke-opacity="0.6"/>
  <path d="M32,320 L32,312 M32,320 L40,320" stroke="#4A7FA0" stroke-width="1" stroke-opacity="0.6"/>
  <path d="M362,320 L362,312 M362,320 L354,320" stroke="#4A7FA0" stroke-width="1" stroke-opacity="0.6"/>

  <!-- ─── FEED 2: Dataset view (top-right) ─── -->
  <rect x="378" y="58" width="338" height="14" fill="#0A141E"/>
  <text x="384" y="69" font-family="'Courier New', monospace" font-size="9" fill="#4A7FA0" fill-opacity="0.6" letter-spacing="1">CAM-02 · Dataset Annotation</text>
  <circle cx="706" cy="65" r="4" fill="#4A7FA0" fill-opacity="0.5"/>

  <rect x="378" y="72" width="338" height="252" rx="4" fill="url(#feedBg)" stroke="#4A7FA0" stroke-width="1" stroke-opacity="0.35"/>
  <rect x="378" y="72" width="338" height="252" fill="url(#scanlines)" rx="4" opacity="0.4"/>

  <!-- Annotation grid tiles -->
  <rect x="384" y="80" width="74" height="56" rx="2" fill="#0F1E2A" stroke="#4A7FA0" stroke-width="0.8" stroke-opacity="0.4"/>
  <rect x="384" y="80" width="74" height="56" fill="#FFB800" fill-opacity="0.05"/>
  <!-- person label top of tile -->
  <rect x="384" y="80" width="74" height="11" rx="2" fill="#FFB800" fill-opacity="0.7"/>
  <text x="387" y="89" font-family="'Courier New', monospace" font-size="7.5" fill="#000">person · 0.95</text>
  <!-- Bounding box inside tile -->
  <rect x="398" y="96" width="38" height="34" fill="none" stroke="#FFB800" stroke-width="1"/>

  <rect x="464" y="80" width="74" height="56" rx="2" fill="#0F1E2A" stroke="#4A7FA0" stroke-width="0.8" stroke-opacity="0.4"/>
  <rect x="464" y="80" width="74" height="11" rx="2" fill="#00C97A" fill-opacity="0.7"/>
  <text x="467" y="89" font-family="'Courier New', monospace" font-size="7.5" fill="#000">person · 0.98</text>
  <rect x="477" y="96" width="38" height="34" fill="none" stroke="#00C97A" stroke-width="1"/>

  <rect x="544" y="80" width="74" height="56" rx="2" fill="#0F1E2A" stroke="#4A7FA0" stroke-width="0.8" stroke-opacity="0.4"/>
  <rect x="544" y="80" width="74" height="11" rx="2" fill="#FF4444" fill-opacity="0.6"/>
  <text x="547" y="89" font-family="'Courier New', monospace" font-size="7.5" fill="#FFF">person · 0.71</text>
  <rect x="557" y="96" width="38" height="34" fill="none" stroke="#FF4444" stroke-width="1"/>
  <!-- Low conf X -->
  <line x1="557" y1="96" x2="595" y2="130" stroke="#FF4444" stroke-width="0.8" stroke-opacity="0.5"/>
  <line x1="595" y1="96" x2="557" y2="130" stroke="#FF4444" stroke-width="0.8" stroke-opacity="0.5"/>

  <rect x="624" y="80" width="74" height="56" rx="2" fill="#0F1E2A" stroke="#4A7FA0" stroke-width="0.8" stroke-opacity="0.4"/>
  <rect x="624" y="80" width="74" height="11" rx="2" fill="#FFB800" fill-opacity="0.7"/>
  <text x="627" y="89" font-family="'Courier New', monospace" font-size="7.5" fill="#000">person · 0.89</text>
  <rect x="637" y="96" width="38" height="34" fill="none" stroke="#FFB800" stroke-width="1"/>

  <!-- Row 2 of tiles -->
  <rect x="384" y="142" width="74" height="56" rx="2" fill="#0F1E2A" stroke="#4A7FA0" stroke-width="0.8" stroke-opacity="0.4"/>
  <rect x="384" y="142" width="74" height="11" rx="2" fill="#00C97A" fill-opacity="0.7"/>
  <text x="387" y="151" font-family="'Courier New', monospace" font-size="7.5" fill="#000">person · 0.96</text>
  <rect x="398" y="158" width="38" height="34" fill="none" stroke="#00C97A" stroke-width="1"/>

  <rect x="464" y="142" width="74" height="56" rx="2" fill="#0F1E2A" stroke="#4A7FA0" stroke-width="0.8" stroke-opacity="0.4"/>
  <rect x="464" y="142" width="74" height="11" rx="2" fill="#FF4444" fill-opacity="0.6"/>
  <text x="467" y="151" font-family="'Courier New', monospace" font-size="7.5" fill="#FFF">person · 0.68</text>
  <rect x="477" y="158" width="38" height="34" fill="none" stroke="#FF4444" stroke-width="1"/>
  <line x1="477" y1="158" x2="515" y2="192" stroke="#FF4444" stroke-width="0.8" stroke-opacity="0.5"/>
  <line x1="515" y1="158" x2="477" y2="192" stroke="#FF4444" stroke-width="0.8" stroke-opacity="0.5"/>

  <rect x="544" y="142" width="74" height="56" rx="2" fill="#0F1E2A" stroke="#4A7FA0" stroke-width="0.8" stroke-opacity="0.4"/>
  <rect x="544" y="142" width="74" height="11" rx="2" fill="#FFB800" fill-opacity="0.7"/>
  <text x="547" y="151" font-family="'Courier New', monospace" font-size="7.5" fill="#000">person · 0.88</text>
  <rect x="557" y="158" width="38" height="34" fill="none" stroke="#FFB800" stroke-width="1"/>

  <rect x="624" y="142" width="74" height="56" rx="2" fill="#0F1E2A" stroke="#00C97A" stroke-width="1" stroke-opacity="0.6"/>
  <rect x="624" y="142" width="74" height="11" rx="2" fill="#00C97A" fill-opacity="0.85"/>
  <text x="627" y="151" font-family="'Courier New', monospace" font-size="7.5" fill="#000">person · 0.99</text>
  <rect x="637" y="158" width="38" height="34" fill="none" stroke="#00C97A" stroke-width="1.5"/>

  <!-- Dataset label area -->
  <rect x="384" y="210" width="326" height="26" rx="3" fill="#0D1E2E" stroke="#4A7FA0" stroke-width="0.6" stroke-opacity="0.3"/>
  <text x="392" y="227" font-family="'Courier New', monospace" font-size="9" fill="#4A7FA0" fill-opacity="0.7">총 이미지</text>
  <text x="450" y="227" font-family="'Courier New', monospace" font-size="10" fill="#7BBDD4" font-weight="bold">4,820</text>
  <line x1="498" y1="216" x2="498" y2="234" stroke="#4A7FA0" stroke-width="0.5" stroke-opacity="0.4"/>
  <text x="506" y="227" font-family="'Courier New', monospace" font-size="9" fill="#4A7FA0" fill-opacity="0.7">보정완료</text>
  <text x="562" y="227" font-family="'Courier New', monospace" font-size="10" fill="#00C97A" font-weight="bold">3,210</text>
  <line x1="605" y1="216" x2="605" y2="234" stroke="#4A7FA0" stroke-width="0.5" stroke-opacity="0.4"/>
  <text x="613" y="227" font-family="'Courier New', monospace" font-size="9" fill="#4A7FA0" fill-opacity="0.7">재라벨</text>
  <text x="659" y="227" font-family="'Courier New', monospace" font-size="10" fill="#FF4444" font-weight="bold">1,610</text>

  <!-- Annotation note -->
  <text x="390" y="256" font-family="'Courier New', monospace" font-size="8.5" fill="#4A7FA0" fill-opacity="0.45">threshold: 0.75 · 저신뢰 탐지 제거 후 재보정</text>
  <text x="390" y="272" font-family="'Courier New', monospace" font-size="8.5" fill="#4A7FA0" fill-opacity="0.35">augmentation: flip · rotate · brightness</text>

  <!-- Corner marks feed2 -->
  <path d="M382,76 L382,84 M382,76 L390,76" stroke="#4A7FA0" stroke-width="1" stroke-opacity="0.5"/>
  <path d="M712,76 L712,84 M712,76 L704,76" stroke="#4A7FA0" stroke-width="1" stroke-opacity="0.5"/>
  <path d="M382,320 L382,312 M382,320 L390,320" stroke="#4A7FA0" stroke-width="1" stroke-opacity="0.5"/>
  <path d="M712,320 L712,312 M712,320 L704,320" stroke="#4A7FA0" stroke-width="1" stroke-opacity="0.5"/>

  <!-- ─── FEED 3: Tracking view (bottom-left) ─── -->
  <rect x="28" y="330" width="338" height="14" fill="#0A141E"/>
  <text x="34" y="341" font-family="'Courier New', monospace" font-size="9" fill="#4A7FA0" fill-opacity="0.6" letter-spacing="1">CAM-03 · Tracking Trajectories</text>
  <circle cx="356" cy="337" r="4" fill="#00C97A" fill-opacity="0.7"/>

  <rect x="28" y="344" width="338" height="222" rx="4" fill="url(#feedBg)" stroke="#4A7FA0" stroke-width="1" stroke-opacity="0.35"/>
  <rect x="28" y="344" width="338" height="222" fill="url(#scanlines)" rx="4" opacity="0.4"/>

  <!-- Tracking trajectories (dotted path lines) -->
  <path d="M80,520 L95,490 L110,460 L128,430 L140,400 L148,375 L152,355" fill="none" stroke="#00C97A" stroke-width="1.5" stroke-dasharray="3,2" stroke-opacity="0.7"/>
  <path d="M140,540 L160,510 L172,480 L175,450 L178,420 L180,390 L185,365" fill="none" stroke="#FFB800" stroke-width="1.5" stroke-dasharray="3,2" stroke-opacity="0.7"/>
  <path d="M200,530 L210,498 L215,468 L218,440 L220,410 L224,380 L226,358" fill="none" stroke="#00C97A" stroke-width="1.5" stroke-dasharray="3,2" stroke-opacity="0.7"/>
  <path d="M260,520 L268,492 L270,462 L272,432 L278,405 L285,378 L290,355" fill="none" stroke="#FFB800" stroke-width="1.5" stroke-dasharray="3,2" stroke-opacity="0.7"/>
  <path d="M305,545 L308,510 L310,480 L313,452 L316,424 L319,396 L320,368" fill="none" stroke="#00C97A" stroke-width="1.5" stroke-dasharray="3,2" stroke-opacity="0.7"/>

  <!-- Track head markers -->
  <circle cx="152" cy="355" r="5" fill="#00C97A" filter="url(#boxGlow)"/>
  <rect x="132" y="344" width="72" height="13" rx="2" fill="#00C97A" fill-opacity="0.85"/>
  <text x="135" y="354" font-family="'Courier New', monospace" font-size="8" fill="#000">ID:003  v:1.2m/s</text>

  <circle cx="185" cy="365" r="5" fill="#FFB800" filter="url(#boxGlow)"/>
  <rect x="165" y="353" width="72" height="13" rx="2" fill="#FFB800" fill-opacity="0.85"/>
  <text x="168" y="363" font-family="'Courier New', monospace" font-size="8" fill="#000">ID:004  v:0.8m/s</text>

  <circle cx="226" cy="358" r="5" fill="#00C97A" filter="url(#boxGlow)"/>
  <circle cx="290" cy="355" r="5" fill="#FFB800" filter="url(#boxGlow)"/>
  <circle cx="320" cy="368" r="5" fill="#00C97A" filter="url(#boxGlow)"/>

  <!-- Motion trail dots -->
  <circle cx="128" cy="430" r="2.5" fill="#00C97A" fill-opacity="0.5"/>
  <circle cx="110" cy="460" r="2" fill="#00C97A" fill-opacity="0.35"/>
  <circle cx="175" cy="450" r="2.5" fill="#FFB800" fill-opacity="0.5"/>
  <circle cx="218" cy="440" r="2.5" fill="#00C97A" fill-opacity="0.5"/>
  <circle cx="272" cy="432" r="2.5" fill="#FFB800" fill-opacity="0.5"/>
  <circle cx="313" cy="452" r="2.5" fill="#00C97A" fill-opacity="0.5"/>

  <!-- ROI polygon - tracking zone -->
  <polygon points="38,545 120,450 250,445 355,550 300,558 90,556"
           fill="none" stroke="#4A7FA0" stroke-width="1.5" stroke-dasharray="8,4" stroke-opacity="0.55"/>

  <!-- Stats overlay -->
  <rect x="30" y="346" width="110" height="20" rx="3" fill="#020810" fill-opacity="0.85"/>
  <text x="36" y="360" font-family="'Courier New', monospace" font-size="9.5" fill="#00C97A" font-weight="bold">TRACKS: <tspan fill="#FFF">5</tspan></text>

  <!-- Corner marks feed3 -->
  <path d="M32,348 L32,356 M32,348 L40,348" stroke="#4A7FA0" stroke-width="1" stroke-opacity="0.5"/>
  <path d="M362,348 L362,356 M362,348 L354,348" stroke="#4A7FA0" stroke-width="1" stroke-opacity="0.5"/>
  <path d="M32,562 L32,554 M32,562 L40,562" stroke="#4A7FA0" stroke-width="1" stroke-opacity="0.5"/>
  <path d="M362,562 L362,554 M362,562 L354,562" stroke="#4A7FA0" stroke-width="1" stroke-opacity="0.5"/>

  <!-- ─── FEED 4: Heatmap density (bottom-right) ─── -->
  <rect x="378" y="330" width="338" height="14" fill="#0A141E"/>
  <text x="384" y="341" font-family="'Courier New', monospace" font-size="9" fill="#4A7FA0" fill-opacity="0.6" letter-spacing="1">CAM-04 · Density Heatmap</text>

  <rect x="378" y="344" width="338" height="222" rx="4" fill="url(#feedBg)" stroke="#4A7FA0" stroke-width="1" stroke-opacity="0.35"/>
  <rect x="378" y="344" width="338" height="222" fill="url(#scanlines)" rx="4" opacity="0.4"/>

  <!-- Density heatmap blobs -->
  <ellipse cx="460" cy="430" rx="65" ry="45" fill="#FF0000" fill-opacity="0.35"/>
  <ellipse cx="460" cy="430" rx="40" ry="28" fill="#FF2200" fill-opacity="0.25"/>
  <ellipse cx="460" cy="430" rx="20" ry="14" fill="#FF4400" fill-opacity="0.2"/>

  <ellipse cx="570" cy="415" rx="55" ry="38" fill="#FF6600" fill-opacity="0.3"/>
  <ellipse cx="570" cy="415" rx="35" ry="24" fill="#FF8800" fill-opacity="0.22"/>

  <ellipse cx="650" cy="450" rx="45" ry="32" fill="#FFAA00" fill-opacity="0.28"/>
  <ellipse cx="650" cy="450" rx="28" ry="20" fill="#FFCC00" fill-opacity="0.2"/>

  <ellipse cx="510" cy="490" rx="38" ry="25" fill="#FF8800" fill-opacity="0.25"/>
  <ellipse cx="430" cy="480" rx="30" ry="20" fill="#FF6600" fill-opacity="0.22"/>

  <!-- Colorbar -->
  <defs>
    <linearGradient id="colorbar" x1="0%" y1="0%" x2="100%" y2="0%">
      <stop offset="0%" style="stop-color:#0000FF;stop-opacity:0.7"/>
      <stop offset="33%" style="stop-color:#00FF00;stop-opacity:0.7"/>
      <stop offset="66%" style="stop-color:#FFFF00;stop-opacity:0.7"/>
      <stop offset="100%" style="stop-color:#FF0000;stop-opacity:0.7"/>
    </linearGradient>
  </defs>
  <rect x="390" y="548" width="160" height="8" rx="4" fill="url(#colorbar)"/>
  <text x="390" y="568" font-family="'Courier New', monospace" font-size="7.5" fill="#4A7FA0" fill-opacity="0.6">Low</text>
  <text x="539" y="568" font-family="'Courier New', monospace" font-size="7.5" fill="#FF4444" fill-opacity="0.8">High</text>
  <text x="460" y="543" font-family="'Courier New', monospace" font-size="7.5" fill="#4A7FA0" fill-opacity="0.5">density</text>

  <!-- Peak density label -->
  <rect x="430" y="402" width="84" height="16" rx="3" fill="#FF0000" fill-opacity="0.7"/>
  <text x="434" y="414" font-family="'Courier New', monospace" font-size="8" fill="#FFF" font-weight="bold">PEAK: 12 p/m²</text>

  <!-- Grid overlay on heatmap -->
  <line x1="450" y1="344" x2="450" y2="566" stroke="#4A7FA0" stroke-width="0.4" stroke-opacity="0.2"/>
  <line x1="530" y1="344" x2="530" y2="566" stroke="#4A7FA0" stroke-width="0.4" stroke-opacity="0.2"/>
  <line x1="610" y1="344" x2="610" y2="566" stroke="#4A7FA0" stroke-width="0.4" stroke-opacity="0.2"/>
  <line x1="378" y1="410" x2="716" y2="410" stroke="#4A7FA0" stroke-width="0.4" stroke-opacity="0.2"/>
  <line x1="378" y1="476" x2="716" y2="476" stroke="#4A7FA0" stroke-width="0.4" stroke-opacity="0.2"/>

  <!-- Corner marks feed4 -->
  <path d="M382,348 L382,356 M382,348 L390,348" stroke="#4A7FA0" stroke-width="1" stroke-opacity="0.5"/>
  <path d="M712,348 L712,356 M712,348 L704,348" stroke="#4A7FA0" stroke-width="1" stroke-opacity="0.5"/>
  <path d="M382,562 L382,554 M382,562 L390,562" stroke="#4A7FA0" stroke-width="1" stroke-opacity="0.5"/>
  <path d="M712,562 L712,554 M712,562 L704,562" stroke="#4A7FA0" stroke-width="1" stroke-opacity="0.5"/>

  <!-- ─── RIGHT SIDE PANEL ─── -->
  <rect x="730" y="58" width="446" height="512" rx="6" fill="#030A14" fill-opacity="0.8" stroke="#4A7FA0" stroke-width="0.8" stroke-opacity="0.3"/>

  <!-- Panel header -->
  <rect x="730" y="58" width="446" height="32" rx="6" fill="#4A7FA0" fill-opacity="0.1"/>
  <text x="746" y="79" font-family="'Courier New', monospace" font-size="10" fill="#7BBDD4" font-weight="bold" letter-spacing="3">SYSTEM METRICS</text>

  <!-- Live person count -->
  <rect x="744" y="104" width="200" height="72" rx="6" fill="#0A1A28" stroke="#4A7FA0" stroke-width="0.8" stroke-opacity="0.4"/>
  <text x="756" y="124" font-family="'Courier New', monospace" font-size="9.5" fill="#4A7FA0" fill-opacity="0.6" letter-spacing="2">DETECTED</text>
  <text x="756" y="158" font-family="'Courier New', monospace" font-size="36" fill="#7BBDD4" font-weight="bold" filter="url(#titleGlow)">23</text>
  <text x="800" y="158" font-family="'Courier New', monospace" font-size="11" fill="#4A7FA0" fill-opacity="0.5">persons</text>

  <!-- Tracked count -->
  <rect x="956" y="104" width="200" height="72" rx="6" fill="#0A1A28" stroke="#00C97A" stroke-width="0.8" stroke-opacity="0.4"/>
  <text x="968" y="124" font-family="'Courier New', monospace" font-size="9.5" fill="#00C97A" fill-opacity="0.6" letter-spacing="2">TRACKED</text>
  <text x="968" y="158" font-family="'Courier New', monospace" font-size="36" fill="#00C97A" font-weight="bold" filter="url(#bigGlow)">18</text>
  <text x="1012" y="158" font-family="'Courier New', monospace" font-size="11" fill="#00C97A" fill-opacity="0.5">active</text>

  <!-- Separator -->
  <line x1="744" y1="192" x2="1148" y2="192" stroke="#4A7FA0" stroke-width="0.5" stroke-opacity="0.3"/>

  <!-- Confidence distribution bar chart -->
  <text x="746" y="212" font-family="'Courier New', monospace" font-size="9" fill="#4A7FA0" fill-opacity="0.55" letter-spacing="2">CONFIDENCE DIST.</text>
  <!-- Bars -->
  <rect x="746" y="222" width="20" height="8" rx="2" fill="#FF4444" fill-opacity="0.7"/>
  <text x="770" y="230" font-family="'Courier New', monospace" font-size="8" fill="#FF4444" fill-opacity="0.8">0.5–0.7  low</text>
  <rect x="746" y="236" width="46" height="8" rx="2" fill="#FFB800" fill-opacity="0.7"/>
  <text x="796" y="244" font-family="'Courier New', monospace" font-size="8" fill="#FFB800" fill-opacity="0.8">0.7–0.9  mid</text>
  <rect x="746" y="250" width="90" height="8" rx="2" fill="#00C97A" fill-opacity="0.7"/>
  <text x="840" y="258" font-family="'Courier New', monospace" font-size="8" fill="#00C97A" fill-opacity="0.8">0.9–1.0  high</text>

  <!-- Confidence % values -->
  <text x="1050" y="230" font-family="'Courier New', monospace" font-size="9" fill="#FF4444" text-anchor="end">12%</text>
  <text x="1050" y="244" font-family="'Courier New', monospace" font-size="9" fill="#FFB800" text-anchor="end">35%</text>
  <text x="1050" y="258" font-family="'Courier New', monospace" font-size="9" fill="#00C97A" text-anchor="end">53%</text>

  <!-- Separator -->
  <line x1="744" y1="274" x2="1148" y2="274" stroke="#4A7FA0" stroke-width="0.5" stroke-opacity="0.3"/>

  <!-- Stack labels -->
  <text x="746" y="294" font-family="'Courier New', monospace" font-size="9" fill="#4A7FA0" fill-opacity="0.55" letter-spacing="2">STACK</text>
  <rect x="746" y="302" width="80" height="20" rx="4" fill="#4A7FA0" fill-opacity="0.12" stroke="#4A7FA0" stroke-width="0.8" stroke-opacity="0.4"/>
  <text x="756" y="316" font-family="'Courier New', monospace" font-size="9.5" fill="#7BBDD4" letter-spacing="0.5">YOLOv8</text>
  <rect x="834" y="302" width="80" height="20" rx="4" fill="#4A7FA0" fill-opacity="0.12" stroke="#4A7FA0" stroke-width="0.8" stroke-opacity="0.4"/>
  <text x="844" y="316" font-family="'Courier New', monospace" font-size="9.5" fill="#7BBDD4" letter-spacing="0.5">ByteTrack</text>
  <rect x="922" y="302" width="60" height="20" rx="4" fill="#4A7FA0" fill-opacity="0.12" stroke="#4A7FA0" stroke-width="0.8" stroke-opacity="0.4"/>
  <text x="932" y="316" font-family="'Courier New', monospace" font-size="9.5" fill="#7BBDD4" letter-spacing="0.5">RTSP</text>
  <rect x="990" y="302" width="72" height="20" rx="4" fill="#4A7FA0" fill-opacity="0.12" stroke="#4A7FA0" stroke-width="0.8" stroke-opacity="0.4"/>
  <text x="1000" y="316" font-family="'Courier New', monospace" font-size="9.5" fill="#7BBDD4" letter-spacing="0.5">Python</text>

  <!-- Separator -->
  <line x1="744" y1="334" x2="1148" y2="334" stroke="#4A7FA0" stroke-width="0.5" stroke-opacity="0.3"/>

  <!-- ROI info -->
  <text x="746" y="354" font-family="'Courier New', monospace" font-size="9" fill="#4A7FA0" fill-opacity="0.55" letter-spacing="2">ROI CONFIG</text>
  <text x="746" y="374" font-family="'Courier New', monospace" font-size="9" fill="#4A7FA0" fill-opacity="0.45">polygon pts</text>
  <text x="840" y="374" font-family="'Courier New', monospace" font-size="10" fill="#7BBDD4">6 vertices</text>
  <text x="746" y="392" font-family="'Courier New', monospace" font-size="9" fill="#4A7FA0" fill-opacity="0.45">area</text>
  <text x="840" y="392" font-family="'Courier New', monospace" font-size="10" fill="#7BBDD4">42.3 m²</text>
  <text x="746" y="410" font-family="'Courier New', monospace" font-size="9" fill="#4A7FA0" fill-opacity="0.45">scale</text>
  <text x="840" y="410" font-family="'Courier New', monospace" font-size="10" fill="#7BBDD4">1px = 0.04m</text>

  <!-- Separator -->
  <line x1="744" y1="424" x2="1148" y2="424" stroke="#4A7FA0" stroke-width="0.5" stroke-opacity="0.3"/>

  <!-- Pipeline status -->
  <text x="746" y="444" font-family="'Courier New', monospace" font-size="9" fill="#4A7FA0" fill-opacity="0.55" letter-spacing="2">PIPELINE</text>

  <!-- Pipeline steps -->
  <circle cx="754" cy="462" r="4" fill="#00C97A"/>
  <text x="764" y="466" font-family="'Courier New', monospace" font-size="9" fill="#7BBDD4">RTSP Capture</text>
  <line x1="754" y1="466" x2="754" y2="474" stroke="#00C97A" stroke-width="1" stroke-opacity="0.5"/>
  <circle cx="754" cy="478" r="4" fill="#00C97A"/>
  <text x="764" y="482" font-family="'Courier New', monospace" font-size="9" fill="#7BBDD4">YOLOv8 Inference</text>
  <line x1="754" y1="482" x2="754" y2="490" stroke="#00C97A" stroke-width="1" stroke-opacity="0.5"/>
  <circle cx="754" cy="494" r="4" fill="#00C97A"/>
  <text x="764" y="498" font-family="'Courier New', monospace" font-size="9" fill="#7BBDD4">ROI Filtering</text>
  <line x1="754" y1="498" x2="754" y2="506" stroke="#00C97A" stroke-width="1" stroke-opacity="0.5"/>
  <circle cx="754" cy="510" r="4" fill="#00C97A"/>
  <text x="764" y="514" font-family="'Courier New', monospace" font-size="9" fill="#7BBDD4">ByteTrack Assignment</text>
  <line x1="754" y1="514" x2="754" y2="522" stroke="#00C97A" stroke-width="1" stroke-opacity="0.5"/>
  <circle cx="754" cy="526" r="4" fill="#FFB800"/>
  <text x="764" y="530" font-family="'Courier New', monospace" font-size="9" fill="#7BBDD4">Density Analysis</text>
  <line x1="754" y1="530" x2="754" y2="538" stroke="#FFB800" stroke-width="1" stroke-opacity="0.5"/>
  <circle cx="754" cy="542" r="4" fill="#4A7FA0" fill-opacity="0.6"/>
  <text x="764" y="546" font-family="'Courier New', monospace" font-size="9" fill="#7BBDD4" fill-opacity="0.7">Output / Logging</text>

  <!-- ─── BOTTOM BORDER ─── -->
  <line x1="0" y1="580" x2="1200" y2="580" stroke="#4A7FA0" stroke-width="0.5" stroke-opacity="0.2"/>
  <text x="600" y="616" text-anchor="middle" font-family="'Courier New', monospace" font-size="9" fill="#4A7FA0" fill-opacity="0.25" letter-spacing="3">REAL-TIME DETECTION · MULTI-CAMERA · DATASET DRIVEN</text>

  <!-- Side borders -->
  <line x1="0" y1="44" x2="0" y2="630" stroke="#4A7FA0" stroke-width="0.5" stroke-opacity="0.15"/>
  <line x1="1199" y1="44" x2="1199" y2="630" stroke="#4A7FA0" stroke-width="0.5" stroke-opacity="0.15"/>
  <line x1="0" y1="629" x2="1200" y2="629" stroke="#4A7FA0" stroke-width="0.5" stroke-opacity="0.15"/>
</svg>
