<svg width="1600" height="900" viewBox="0 0 1600 900" fill="none" xmlns="http://www.w3.org/2000/svg">
  <defs>
    <linearGradient id="bg" x1="0%" y1="0%" x2="100%" y2="100%">
      <stop offset="0%" stop-color="#eef2ff"/>
      <stop offset="100%" stop-color="#e0e7ff"/>
    </linearGradient>
    <filter id="shadow">
      <feDropShadow dx="0" dy="2" stdDeviation="6" flood-color="#6366f1" flood-opacity="0.1"/>
    </filter>
    <filter id="shadowSm">
      <feDropShadow dx="0" dy="1" stdDeviation="3" flood-color="#6366f1" flood-opacity="0.08"/>
    </filter>
  </defs>

  <rect width="1600" height="900" fill="url(#bg)"/>
  <pattern id="dots" width="20" height="20" patternUnits="userSpaceOnUse">
    <circle cx="10" cy="10" r="0.6" fill="#6366f1" fill-opacity="0.05"/>
  </pattern>
  <rect width="1600" height="900" fill="url(#dots)"/>

  <!-- ═══ LEFT: Multi-Channel Crawling Sources ═══ -->
  <rect x="60" y="60" width="380" height="540" rx="16" fill="#ffffff" filter="url(#shadow)"/>
  <text x="85" y="95" fill="#6366f1" font-family="monospace" font-size="9" font-weight="600" letter-spacing="3">CRAWL SOURCES</text>
  <line x1="85" y1="105" x2="420" y2="105" stroke="#e0e7ff" stroke-width="1"/>

  <!-- Source: 나라장터 -->
  <rect x="85" y="125" width="330" height="60" rx="10" fill="#f5f3ff" stroke="#6366f1" stroke-opacity="0.15" stroke-width="1"/>
  <circle cx="115" cy="155" r="14" fill="#6366f1" fill-opacity="0.1"/>
  <text x="115" y="159" text-anchor="middle" fill="#6366f1" font-family="system-ui,sans-serif" font-size="11" font-weight="800">N</text>
  <text x="145" y="148" fill="#1e293b" font-family="system-ui,sans-serif" font-size="11" font-weight="700">나라장터</text>
  <text x="145" y="166" fill="#94a3b8" font-family="monospace" font-size="8">g2b.go.kr · HTML Crawling</text>
  <circle cx="390" cy="155" r="5" fill="#34d399"/>

  <!-- Source: 조달청 -->
  <rect x="85" y="200" width="330" height="60" rx="10" fill="#f5f3ff" stroke="#6366f1" stroke-opacity="0.12" stroke-width="1"/>
  <circle cx="115" cy="230" r="14" fill="#6366f1" fill-opacity="0.1"/>
  <text x="115" y="234" text-anchor="middle" fill="#6366f1" font-family="system-ui,sans-serif" font-size="11" font-weight="800">P</text>
  <text x="145" y="223" fill="#1e293b" font-family="system-ui,sans-serif" font-size="11" font-weight="700">조달청</text>
  <text x="145" y="241" fill="#94a3b8" font-family="monospace" font-size="8">pps.go.kr · RSS + API</text>
  <circle cx="390" cy="230" r="5" fill="#34d399"/>

  <!-- Source: G2B Open API -->
  <rect x="85" y="275" width="330" height="60" rx="10" fill="#f5f3ff" stroke="#6366f1" stroke-opacity="0.12" stroke-width="1"/>
  <circle cx="115" cy="305" r="14" fill="#6366f1" fill-opacity="0.1"/>
  <text x="115" y="309" text-anchor="middle" fill="#6366f1" font-family="system-ui,sans-serif" font-size="10" font-weight="800">G</text>
  <text x="145" y="298" fill="#1e293b" font-family="system-ui,sans-serif" font-size="11" font-weight="700">G2B Open API</text>
  <text x="145" y="316" fill="#94a3b8" font-family="monospace" font-size="8">data.go.kr · REST JSON</text>
  <circle cx="390" cy="305" r="5" fill="#34d399"/>

  <!-- Source: KONEPS -->
  <rect x="85" y="350" width="330" height="60" rx="10" fill="#f5f3ff" stroke="#6366f1" stroke-opacity="0.08" stroke-width="1"/>
  <circle cx="115" cy="380" r="14" fill="#6366f1" fill-opacity="0.1"/>
  <text x="115" y="384" text-anchor="middle" fill="#6366f1" font-family="system-ui,sans-serif" font-size="10" font-weight="800">K</text>
  <text x="145" y="373" fill="#1e293b" font-family="system-ui,sans-serif" font-size="11" font-weight="700">KONEPS</text>
  <text x="145" y="391" fill="#94a3b8" font-family="monospace" font-size="8">koneps.go.kr · Scheduled</text>
  <circle cx="390" cy="380" r="5" fill="#34d399"/>

  <!-- Count badge -->
  <rect x="85" y="430" width="330" height="40" rx="8" fill="#6366f1" fill-opacity="0.04" stroke="#6366f1" stroke-opacity="0.1" stroke-width="1" stroke-dasharray="5 4"/>
  <text x="250" y="455" text-anchor="middle" fill="#6366f1" fill-opacity="0.5" font-family="monospace" font-size="10" letter-spacing="1">4 channels · auto-scheduled</text>

  <!-- Data collected label -->
  <rect x="85" y="500" width="330" height="80" rx="10" fill="#f5f3ff" stroke="#e0e7ff" stroke-width="1"/>
  <text x="105" y="525" fill="#64748b" font-family="monospace" font-size="8" font-weight="600" letter-spacing="1">TODAY'S COLLECTION</text>
  <text x="250" y="560" text-anchor="middle" fill="#1e293b" font-family="system-ui,sans-serif" font-size="28" font-weight="800">27<tspan font-size="14" fill="#94a3b8"> notices</tspan></text>

  <!-- ═══ CENTER: AI Pipeline (vertical arrows) ═══ -->

  <!-- Arrow from sources to pipeline -->
  <line x1="440" y1="330" x2="510" y2="330" stroke="#6366f1" stroke-opacity="0.25" stroke-width="2"/>
  <polygon points="507,325 517,330 507,335" fill="#6366f1" fill-opacity="0.3"/>

  <rect x="520" y="60" width="340" height="540" rx="16" fill="#ffffff" filter="url(#shadow)"/>
  <text x="545" y="95" fill="#6366f1" font-family="monospace" font-size="9" font-weight="600" letter-spacing="3">AI ANALYSIS PIPELINE</text>
  <line x1="545" y1="105" x2="840" y2="105" stroke="#e0e7ff" stroke-width="1"/>

  <!-- Stage 1: Parsing -->
  <g transform="translate(690,165)">
    <rect x="-140" y="-35" width="280" height="70" rx="12" fill="#f5f3ff" stroke="#6366f1" stroke-opacity="0.2" stroke-width="1.2"/>
    <circle cx="-105" cy="0" r="16" fill="#6366f1" fill-opacity="0.1"/>
    <text x="-105" y="4" text-anchor="middle" fill="#6366f1" font-family="system-ui,sans-serif" font-size="14" font-weight="800">1</text>
    <text x="-75" y="-8" fill="#1e293b" font-family="system-ui,sans-serif" font-size="11" font-weight="700">HTML Parser</text>
    <text x="-75" y="10" fill="#94a3b8" font-family="monospace" font-size="8">Raw HTML → Structured JSON</text>
    <circle cx="120" cy="-20" r="4" fill="#34d399"/>
  </g>

  <!-- Arrow -->
  <line x1="690" y1="202" x2="690" y2="238" stroke="#6366f1" stroke-opacity="0.15" stroke-width="1.5"/>
  <polygon points="686,235 690,245 694,235" fill="#6366f1" fill-opacity="0.2"/>

  <!-- Stage 2: LLM Summarize -->
  <g transform="translate(690,290)">
    <rect x="-140" y="-35" width="280" height="70" rx="12" fill="#f5f3ff" stroke="#6366f1" stroke-opacity="0.25" stroke-width="1.5"/>
    <circle cx="-105" cy="0" r="16" fill="#6366f1" fill-opacity="0.15"/>
    <text x="-105" y="4" text-anchor="middle" fill="#6366f1" font-family="system-ui,sans-serif" font-size="14" font-weight="800">2</text>
    <text x="-75" y="-8" fill="#1e293b" font-family="system-ui,sans-serif" font-size="11" font-weight="700">LLM Summarizer</text>
    <text x="-75" y="10" fill="#94a3b8" font-family="monospace" font-size="8">Prompt Chaining · GPT-4</text>
    <circle cx="120" cy="-20" r="4" fill="#34d399"/>
  </g>

  <!-- Arrow -->
  <line x1="690" y1="327" x2="690" y2="363" stroke="#6366f1" stroke-opacity="0.15" stroke-width="1.5"/>
  <polygon points="686,360 690,370 694,360" fill="#6366f1" fill-opacity="0.2"/>

  <!-- Stage 3: Classifier -->
  <g transform="translate(690,415)">
    <rect x="-140" y="-35" width="280" height="70" rx="12" fill="#f5f3ff" stroke="#6366f1" stroke-opacity="0.2" stroke-width="1.2"/>
    <circle cx="-105" cy="0" r="16" fill="#6366f1" fill-opacity="0.1"/>
    <text x="-105" y="4" text-anchor="middle" fill="#6366f1" font-family="system-ui,sans-serif" font-size="14" font-weight="800">3</text>
    <text x="-75" y="-8" fill="#1e293b" font-family="system-ui,sans-serif" font-size="11" font-weight="700">Classifier</text>
    <text x="-75" y="10" fill="#94a3b8" font-family="monospace" font-size="8">Category · Priority · Score</text>
    <circle cx="120" cy="-20" r="4" fill="#34d399"/>
  </g>

  <!-- Arrow -->
  <line x1="690" y1="452" x2="690" y2="488" stroke="#6366f1" stroke-opacity="0.15" stroke-width="1.5"/>
  <polygon points="686,485 690,495 694,485" fill="#6366f1" fill-opacity="0.2"/>

  <!-- Stage 4: Delivery -->
  <g transform="translate(690,540)">
    <rect x="-140" y="-35" width="280" height="70" rx="12" fill="#f5f3ff" stroke="#6366f1" stroke-opacity="0.2" stroke-width="1.2"/>
    <circle cx="-105" cy="0" r="16" fill="#6366f1" fill-opacity="0.1"/>
    <text x="-105" y="4" text-anchor="middle" fill="#6366f1" font-family="system-ui,sans-serif" font-size="14" font-weight="800">4</text>
    <text x="-75" y="-8" fill="#1e293b" font-family="system-ui,sans-serif" font-size="11" font-weight="700">Delivery API</text>
    <text x="-75" y="10" fill="#94a3b8" font-family="monospace" font-size="8">Rule Filter · Push to Assignees</text>
    <circle cx="120" cy="-20" r="4" fill="#34d399"/>
  </g>

  <!-- ═══ RIGHT: Analyzed Results ═══ -->

  <!-- Arrow from pipeline to results -->
  <line x1="860" y1="330" x2="930" y2="330" stroke="#6366f1" stroke-opacity="0.25" stroke-width="2"/>
  <polygon points="927,325 937,330 927,335" fill="#6366f1" fill-opacity="0.3"/>

  <rect x="940" y="60" width="600" height="540" rx="16" fill="#ffffff" filter="url(#shadow)"/>
  <text x="965" y="95" fill="#6366f1" font-family="monospace" font-size="9" font-weight="600" letter-spacing="3">ANALYZED RESULTS</text>
  <line x1="965" y1="105" x2="1520" y2="105" stroke="#e0e7ff" stroke-width="1"/>

  <!-- Result 1 -->
  <rect x="965" y="120" width="550" height="105" rx="10" fill="#f5f3ff" stroke="#6366f1" stroke-opacity="0.12" stroke-width="1"/>
  <rect x="965" y="120" width="5" height="105" rx="2" fill="#34d399"/>
  <text x="990" y="148" fill="#1e293b" font-family="system-ui,sans-serif" font-size="12" font-weight="700">AI 기반 스마트 시티 통합 플랫폼 구축 사업</text>
  <rect x="990" y="158" width="50" height="18" rx="5" fill="#dcfce7" stroke="#34d399" stroke-opacity="0.3" stroke-width="0.8"/>
  <text x="1015" y="171" text-anchor="middle" fill="#16a34a" font-family="monospace" font-size="8" font-weight="700">HIGH</text>
  <rect x="1048" y="158" width="40" height="18" rx="5" fill="#ede9fe" stroke="#6366f1" stroke-opacity="0.2" stroke-width="0.8"/>
  <text x="1068" y="171" text-anchor="middle" fill="#6366f1" font-family="monospace" font-size="8">SOC</text>
  <text x="1100" y="171" fill="#94a3b8" font-family="monospace" font-size="8">score: 92</text>
  <text x="990" y="196" fill="#64748b" font-family="monospace" font-size="8">AI 분석 시스템 · 예산 12억 · 마감 D-7 · 나라장터</text>
  <text x="990" y="212" fill="#94a3b8" font-family="system-ui,sans-serif" font-size="8">LLM 요약: 도시 운영 데이터 수집·분석 AI 플랫폼. Java/Spring 백엔드 + Python ML 파이프라인 요구.</text>

  <!-- Result 2 -->
  <rect x="965" y="240" width="550" height="105" rx="10" fill="#f5f3ff" stroke="#6366f1" stroke-opacity="0.1" stroke-width="1"/>
  <rect x="965" y="240" width="5" height="105" rx="2" fill="#f59e0b"/>
  <text x="990" y="268" fill="#1e293b" font-family="system-ui,sans-serif" font-size="12" font-weight="700">공공 데이터 분석 시스템 고도화 용역</text>
  <rect x="990" y="278" width="60" height="18" rx="5" fill="#fef3c7" stroke="#f59e0b" stroke-opacity="0.3" stroke-width="0.8"/>
  <text x="1020" y="291" text-anchor="middle" fill="#d97706" font-family="monospace" font-size="8" font-weight="700">MEDIUM</text>
  <rect x="1058" y="278" width="45" height="18" rx="5" fill="#ede9fe" stroke="#6366f1" stroke-opacity="0.2" stroke-width="0.8"/>
  <text x="1081" y="291" text-anchor="middle" fill="#6366f1" font-family="monospace" font-size="8">DATA</text>
  <text x="1115" y="291" fill="#94a3b8" font-family="monospace" font-size="8">score: 76</text>
  <text x="990" y="316" fill="#64748b" font-family="monospace" font-size="8">데이터 파이프라인 · 예산 5억 · 마감 D-14 · 조달청</text>
  <text x="990" y="332" fill="#94a3b8" font-family="system-ui,sans-serif" font-size="8">LLM 요약: 기존 공공 데이터 분석 인프라 성능 개선. ETL 파이프라인 최적화 및 대시보드 재구축.</text>

  <!-- Result 3 -->
  <rect x="965" y="360" width="550" height="105" rx="10" fill="#f5f3ff" stroke="#6366f1" stroke-opacity="0.1" stroke-width="1"/>
  <rect x="965" y="360" width="5" height="105" rx="2" fill="#34d399"/>
  <text x="990" y="388" fill="#1e293b" font-family="system-ui,sans-serif" font-size="12" font-weight="700">병원 정보시스템 통합 운영 사업</text>
  <rect x="990" y="398" width="50" height="18" rx="5" fill="#dcfce7" stroke="#34d399" stroke-opacity="0.3" stroke-width="0.8"/>
  <text x="1015" y="411" text-anchor="middle" fill="#16a34a" font-family="monospace" font-size="8" font-weight="700">HIGH</text>
  <rect x="1048" y="398" width="40" height="18" rx="5" fill="#ede9fe" stroke="#6366f1" stroke-opacity="0.2" stroke-width="0.8"/>
  <text x="1068" y="411" text-anchor="middle" fill="#6366f1" font-family="monospace" font-size="8">MED</text>
  <text x="1100" y="411" fill="#94a3b8" font-family="monospace" font-size="8">score: 88</text>
  <text x="990" y="436" fill="#64748b" font-family="monospace" font-size="8">의료 SI · 예산 8억 · 마감 D-3 · G2B</text>
  <text x="990" y="452" fill="#94a3b8" font-family="system-ui,sans-serif" font-size="8">LLM 요약: 의료기관 정보 시스템 통합·고도화. EMR 연동 경험 우대, Spring 기반 백엔드.</text>

  <!-- More results -->
  <rect x="965" y="480" width="550" height="40" rx="8" fill="#6366f1" fill-opacity="0.03" stroke="#6366f1" stroke-opacity="0.08" stroke-width="1" stroke-dasharray="5 4"/>
  <text x="1240" y="505" text-anchor="middle" fill="#6366f1" fill-opacity="0.4" font-family="monospace" font-size="10" letter-spacing="1">+ 24 more results today</text>

  <!-- Delivery summary -->
  <rect x="965" y="535" width="550" height="50" rx="10" fill="#dcfce7" fill-opacity="0.5" stroke="#34d399" stroke-opacity="0.15" stroke-width="1"/>
  <text x="990" y="565" fill="#16a34a" font-family="monospace" font-size="9" font-weight="600">✓ Auto-delivered to 4 assignees via rule-based filter</text>

  <!-- ═══ BOTTOM STATS ═══ -->
  <rect x="60" y="630" width="1480" height="90" rx="14" fill="#ffffff" filter="url(#shadowSm)"/>

  <g transform="translate(260,675)">
    <text text-anchor="middle" y="-6" fill="#1e293b" font-family="system-ui,sans-serif" font-size="30" font-weight="800">4</text>
    <text text-anchor="middle" y="16" fill="#94a3b8" font-family="monospace" font-size="9" font-weight="600" letter-spacing="2">CHANNELS</text>
  </g>
  <line x1="440" y1="645" x2="440" y2="705" stroke="#e0e7ff"/>
  <g transform="translate(600,675)">
    <text text-anchor="middle" y="-6" fill="#1e293b" font-family="system-ui,sans-serif" font-size="30" font-weight="800">LLM</text>
    <text text-anchor="middle" y="16" fill="#94a3b8" font-family="monospace" font-size="9" font-weight="600" letter-spacing="2">SUMMARIZE</text>
  </g>
  <line x1="780" y1="645" x2="780" y2="705" stroke="#e0e7ff"/>
  <g transform="translate(940,675)">
    <text text-anchor="middle" y="-6" fill="#34d399" font-family="system-ui,sans-serif" font-size="30" font-weight="800">Auto</text>
    <text text-anchor="middle" y="16" fill="#34d399" font-family="monospace" font-size="9" font-weight="600" letter-spacing="2">CLASSIFY</text>
  </g>
  <line x1="1120" y1="645" x2="1120" y2="705" stroke="#e0e7ff"/>
  <g transform="translate(1300,675)">
    <text text-anchor="middle" y="-6" fill="#6366f1" font-family="system-ui,sans-serif" font-size="15" font-weight="700">Rule-Based Delivery</text>
    <text text-anchor="middle" y="16" fill="#94a3b8" font-family="monospace" font-size="9" font-weight="600" letter-spacing="2">FILTER · PUSH · API</text>
  </g>

  <!-- Tech stack pills -->
  <rect x="60" y="750" width="1480" height="50" rx="10" fill="#ffffff" filter="url(#shadowSm)"/>
  <g transform="translate(200,775)">
    <rect x="-50" y="-12" width="100" height="24" rx="6" fill="#f5f3ff" stroke="#e0e7ff" stroke-width="1"/>
    <text text-anchor="middle" y="4" fill="#6366f1" font-family="monospace" font-size="9" font-weight="600">Python</text>
  </g>
  <g transform="translate(360,775)">
    <rect x="-50" y="-12" width="100" height="24" rx="6" fill="#f5f3ff" stroke="#e0e7ff" stroke-width="1"/>
    <text text-anchor="middle" y="4" fill="#6366f1" font-family="monospace" font-size="9" font-weight="600">FastAPI</text>
  </g>
  <g transform="translate(520,775)">
    <rect x="-45" y="-12" width="90" height="24" rx="6" fill="#f5f3ff" stroke="#e0e7ff" stroke-width="1"/>
    <text text-anchor="middle" y="4" fill="#6366f1" font-family="monospace" font-size="9" font-weight="600">GPT-4</text>
  </g>
  <g transform="translate(670,775)">
    <rect x="-55" y="-12" width="110" height="24" rx="6" fill="#f5f3ff" stroke="#e0e7ff" stroke-width="1"/>
    <text text-anchor="middle" y="4" fill="#6366f1" font-family="monospace" font-size="9" font-weight="600">Scrapy</text>
  </g>
  <g transform="translate(840,775)">
    <rect x="-55" y="-12" width="110" height="24" rx="6" fill="#f5f3ff" stroke="#e0e7ff" stroke-width="1"/>
    <text text-anchor="middle" y="4" fill="#6366f1" font-family="monospace" font-size="9" font-weight="600">PostgreSQL</text>
  </g>
  <g transform="translate(1020,775)">
    <rect x="-45" y="-12" width="90" height="24" rx="6" fill="#f5f3ff" stroke="#e0e7ff" stroke-width="1"/>
    <text text-anchor="middle" y="4" fill="#6366f1" font-family="monospace" font-size="9" font-weight="600">Redis</text>
  </g>
  <g transform="translate(1180,775)">
    <rect x="-45" y="-12" width="90" height="24" rx="6" fill="#f5f3ff" stroke="#e0e7ff" stroke-width="1"/>
    <text text-anchor="middle" y="4" fill="#6366f1" font-family="monospace" font-size="9" font-weight="600">Docker</text>
  </g>
  <g transform="translate(1370,775)">
    <rect x="-60" y="-12" width="120" height="24" rx="6" fill="#f5f3ff" stroke="#e0e7ff" stroke-width="1"/>
    <text text-anchor="middle" y="4" fill="#6366f1" font-family="monospace" font-size="9" font-weight="600">Scheduler</text>
  </g>

  <!-- Bottom accent -->
  <rect x="60" y="830" width="1480" height="4" rx="2" fill="#6366f1" fill-opacity="0.06"/>
</svg>