<svg xmlns="http://www.w3.org/2000/svg" viewBox="0 0 1200 630" width="1200" height="630">
  <defs>
    <linearGradient id="bg" x1="0%" y1="0%" x2="100%" y2="100%">
      <stop offset="0%" style="stop-color:#030A10"/>
      <stop offset="60%" style="stop-color:#050E18"/>
      <stop offset="100%" style="stop-color:#071422"/>
    </linearGradient>

    <!-- Hospital panel gradients -->
    <linearGradient id="hospPanel" x1="0%" y1="0%" x2="100%" y2="100%">
      <stop offset="0%" style="stop-color:#0A1E2A"/>
      <stop offset="100%" style="stop-color:#060F18"/>
    </linearGradient>
    <linearGradient id="corePanel" x1="0%" y1="0%" x2="0%" y2="100%">
      <stop offset="0%" style="stop-color:#0D3535"/>
      <stop offset="100%" style="stop-color:#071622"/>
    </linearGradient>
    <linearGradient id="resultPanel" x1="0%" y1="0%" x2="100%" y2="100%">
      <stop offset="0%" style="stop-color:#081E18"/>
      <stop offset="100%" style="stop-color:#050E12"/>
    </linearGradient>

    <!-- Glow filters -->
    <filter id="tealGlow" x="-40%" y="-40%" width="180%" height="180%">
      <feGaussianBlur in="SourceGraphic" stdDeviation="6" result="b"/>
      <feMerge><feMergeNode in="b"/><feMergeNode in="SourceGraphic"/></feMerge>
    </filter>
    <filter id="greenGlow" x="-40%" y="-40%" width="180%" height="180%">
      <feGaussianBlur in="SourceGraphic" stdDeviation="5" result="b"/>
      <feMerge><feMergeNode in="b"/><feMergeNode in="SourceGraphic"/></feMerge>
    </filter>
    <filter id="bigGlow" x="-80%" y="-80%" width="260%" height="260%">
      <feGaussianBlur in="SourceGraphic" stdDeviation="18" result="b"/>
      <feMerge><feMergeNode in="b"/><feMergeNode in="SourceGraphic"/></feMerge>
    </filter>
    <filter id="titleGlow" x="-10%" y="-20%" width="120%" height="140%">
      <feGaussianBlur in="SourceGraphic" stdDeviation="4" result="b"/>
      <feMerge><feMergeNode in="b"/><feMergeNode in="SourceGraphic"/></feMerge>
    </filter>

    <!-- Grid -->
    <pattern id="grid" width="36" height="36" patternUnits="userSpaceOnUse">
      <path d="M36 0L0 0 0 36" fill="none" stroke="#0D8B8B" stroke-width="0.25" stroke-opacity="0.12"/>
    </pattern>

    <!-- ECG path clip -->
    <clipPath id="ecgClip">
      <rect x="0" y="0" width="1200" height="52"/>
    </clipPath>

    <!-- Arrow marker -->
    <marker id="arrowT" markerWidth="8" markerHeight="8" refX="6" refY="3" orient="auto">
      <path d="M0,0 L0,6 L8,3 Z" fill="#0D8B8B" fill-opacity="0.7"/>
    </marker>
    <marker id="arrowG" markerWidth="8" markerHeight="8" refX="6" refY="3" orient="auto">
      <path d="M0,0 L0,6 L8,3 Z" fill="#00C97A" fill-opacity="0.7"/>
    </marker>

    <!-- Pass gradient -->
    <linearGradient id="passBg" x1="0%" y1="0%" x2="100%" y2="0%">
      <stop offset="0%" style="stop-color:#00C97A;stop-opacity:0.02"/>
      <stop offset="50%" style="stop-color:#00C97A;stop-opacity:0.12"/>
      <stop offset="100%" style="stop-color:#00C97A;stop-opacity:0.02"/>
    </linearGradient>

    <!-- Tag gradients -->
    <linearGradient id="tagBlue" x1="0%" y1="0%" x2="100%" y2="0%">
      <stop offset="0%" style="stop-color:#1A4A8A;stop-opacity:0.8"/>
      <stop offset="100%" style="stop-color:#0F3060;stop-opacity:0.8"/>
    </linearGradient>
    <linearGradient id="tagOrange" x1="0%" y1="0%" x2="100%" y2="0%">
      <stop offset="0%" style="stop-color:#8A4A1A;stop-opacity:0.8"/>
      <stop offset="100%" style="stop-color:#603010;stop-opacity:0.8"/>
    </linearGradient>
    <linearGradient id="tagPurple" x1="0%" y1="0%" x2="100%" y2="0%">
      <stop offset="0%" style="stop-color:#5A2A8A;stop-opacity:0.8"/>
      <stop offset="100%" style="stop-color:#3A1060;stop-opacity:0.8"/>
    </linearGradient>
  </defs>

  <!-- ─── BACKGROUND ─── -->
  <rect width="1200" height="630" fill="url(#bg)"/>
  <rect width="1200" height="630" fill="url(#grid)"/>

  <!-- Large faint hospital cross watermark -->
  <g opacity="0.03" filter="url(#bigGlow)">
    <rect x="540" y="200" width="120" height="36" rx="4" fill="#0D8B8B"/>
    <rect x="576" y="164" width="48" height="108" rx="4" fill="#0D8B8B"/>
  </g>

  <!-- Ambient light left -->
  <ellipse cx="100" cy="315" rx="180" ry="280" fill="#0D8B8B" fill-opacity="0.03"/>
  <!-- Ambient light right -->
  <ellipse cx="1100" cy="315" rx="180" ry="280" fill="#00C97A" fill-opacity="0.02"/>

  <!-- ─── ECG PULSE TOP BAR ─── -->
  <rect x="0" y="0" width="1200" height="52" fill="#030A10" fill-opacity="0.8"/>
  <line x1="0" y1="52" x2="1200" y2="52" stroke="#0D8B8B" stroke-width="0.8" stroke-opacity="0.4"/>

  <!-- ECG line -->
  <path d="M0,28 L80,28 L110,28 L118,10 L126,46 L134,10 L142,46 L150,28
           L230,28 L260,28 L268,10 L276,46 L284,10 L292,46 L300,28
           L380,28 L410,28 L418,10 L426,46 L434,10 L442,46 L450,28
           L530,28 L560,28 L568,10 L576,46 L584,10 L592,46 L600,28
           L680,28 L710,28 L718,10 L726,46 L734,10 L742,46 L750,28
           L830,28 L860,28 L868,10 L876,46 L884,10 L892,46 L900,28
           L980,28 L1010,28 L1018,10 L1026,46 L1034,10 L1042,46 L1050,28
           L1200,28"
        fill="none" stroke="#0D8B8B" stroke-width="1.5" stroke-opacity="0.5" clip-path="url(#ecgClip)"/>
  <!-- ECG highlight pulse -->
  <path d="M540,28 L560,28 L568,10 L576,46 L584,10 L592,46 L600,28 L660,28"
        fill="none" stroke="#1DFFF0" stroke-width="2" stroke-opacity="0.9" filter="url(#tealGlow)"/>

  <!-- Title in ECG bar -->
  <text x="24" y="33" font-family="'Courier New', monospace" font-size="11" fill="#0D8B8B" fill-opacity="0.5" letter-spacing="3">VITAL</text>
  <text x="600" y="33" text-anchor="middle" font-family="'Courier New', monospace" font-size="13" fill="#1DFFF0" fill-opacity="0.85" letter-spacing="4" font-weight="bold">HOSPITAL INTEGRATION TEST FRAMEWORK</text>
  <circle cx="1140" cy="26" r="5" fill="#00C97A"/>
  <circle cx="1140" cy="26" r="10" fill="#00C97A" fill-opacity="0.2"/>
  <text x="1155" y="31" font-family="'Courier New', monospace" font-size="10" fill="#00C97A" letter-spacing="1">LIVE</text>

  <!-- ─── LEFT COLUMN: HOSPITAL NODES ─── -->

  <!-- Section label -->
  <text x="24" y="85" font-family="'Courier New', monospace" font-size="9" fill="#0D8B8B" fill-opacity="0.5" letter-spacing="3">HOSPITALS</text>
  <line x1="24" y1="90" x2="265" y2="90" stroke="#0D8B8B" stroke-width="0.5" stroke-opacity="0.3"/>

  <!-- ── HOSPITAL A ── -->
  <rect x="20" y="98" width="260" height="148" rx="8" fill="url(#hospPanel)" stroke="#0D8B8B" stroke-width="1" stroke-opacity="0.5"/>
  <!-- Header -->
  <rect x="20" y="98" width="260" height="28" rx="8" fill="#0D8B8B" fill-opacity="0.15"/>
  <rect x="20" y="113" width="260" height="13" fill="#0D8B8B" fill-opacity="0.15"/>
  <!-- Cross icon -->
  <rect x="30" y="104" width="12" height="4" rx="1" fill="#0D8B8B" fill-opacity="0.8"/>
  <rect x="34" y="100" width="4" height="12" rx="1" fill="#0D8B8B" fill-opacity="0.8"/>
  <text x="50" y="117" font-family="'Courier New', monospace" font-size="11" fill="#1DFFF0" font-weight="bold" letter-spacing="1">병원 A</text>
  <text x="110" y="117" font-family="'Courier New', monospace" font-size="9" fill="#0D8B8B" fill-opacity="0.5">· 상급종합병원</text>

  <!-- Protocol tags row: XML Intake -->
  <text x="30" y="144" font-family="'Courier New', monospace" font-size="8.5" fill="#0D8B8B" fill-opacity="0.5" letter-spacing="1">XML</text>
  <rect x="58" y="132" width="44" height="17" rx="3" fill="url(#tagBlue)"/>
  <text x="62" y="144" font-family="'Courier New', monospace" font-size="9" fill="#7EC8FF" letter-spacing="0.5">SFTP</text>
  <rect x="108" y="132" width="52" height="17" rx="3" fill="url(#tagBlue)"/>
  <text x="112" y="144" font-family="'Courier New', monospace" font-size="9" fill="#7EC8FF" letter-spacing="0.5">HL7 v2</text>

  <!-- Protocol tags row: Rx -->
  <text x="30" y="170" font-family="'Courier New', monospace" font-size="8.5" fill="#0D8B8B" fill-opacity="0.5" letter-spacing="1">Rx</text>
  <rect x="58" y="158" width="70" height="17" rx="3" fill="url(#tagOrange)"/>
  <text x="62" y="170" font-family="'Courier New', monospace" font-size="9" fill="#FFB87E" letter-spacing="0.5">EMR-API v1</text>

  <!-- Protocol tags row: Report -->
  <text x="30" y="196" font-family="'Courier New', monospace" font-size="8.5" fill="#0D8B8B" fill-opacity="0.5" letter-spacing="1">RPT</text>
  <rect x="58" y="184" width="44" height="17" rx="3" fill="url(#tagPurple)"/>
  <text x="62" y="196" font-family="'Courier New', monospace" font-size="9" fill="#C87EFF" letter-spacing="0.5">API</text>
  <rect x="108" y="184" width="56" height="17" rx="3" fill="url(#tagPurple)"/>
  <text x="112" y="196" font-family="'Courier New', monospace" font-size="9" fill="#C87EFF" letter-spacing="0.5">JSON</text>

  <text x="30" y="232" font-family="'Courier New', monospace" font-size="8.5" fill="#0D8B8B" fill-opacity="0.4" letter-spacing="0.5">자체 EMR 시스템 · 처방 API 인증 필요</text>

  <!-- ── HOSPITAL B ── -->
  <rect x="20" y="262" width="260" height="148" rx="8" fill="url(#hospPanel)" stroke="#0D8B8B" stroke-width="1" stroke-opacity="0.4"/>
  <rect x="20" y="262" width="260" height="28" rx="8" fill="#0D8B8B" fill-opacity="0.12"/>
  <rect x="20" y="277" width="260" height="13" fill="#0D8B8B" fill-opacity="0.12"/>
  <rect x="30" y="268" width="12" height="4" rx="1" fill="#0D8B8B" fill-opacity="0.7"/>
  <rect x="34" y="264" width="4" height="12" rx="1" fill="#0D8B8B" fill-opacity="0.7"/>
  <text x="50" y="281" font-family="'Courier New', monospace" font-size="11" fill="#1DFFF0" font-weight="bold" letter-spacing="1">병원 B</text>
  <text x="110" y="281" font-family="'Courier New', monospace" font-size="9" fill="#0D8B8B" fill-opacity="0.5">· 전문병원</text>

  <text x="30" y="308" font-family="'Courier New', monospace" font-size="8.5" fill="#0D8B8B" fill-opacity="0.5" letter-spacing="1">XML</text>
  <rect x="58" y="296" width="36" height="17" rx="3" fill="url(#tagBlue)"/>
  <text x="62" y="308" font-family="'Courier New', monospace" font-size="9" fill="#7EC8FF" letter-spacing="0.5">FTP</text>
  <rect x="100" y="296" width="76" height="17" rx="3" fill="url(#tagBlue)"/>
  <text x="104" y="308" font-family="'Courier New', monospace" font-size="9" fill="#7EC8FF" letter-spacing="0.5">Custom XML</text>

  <text x="30" y="334" font-family="'Courier New', monospace" font-size="8.5" fill="#0D8B8B" fill-opacity="0.5" letter-spacing="1">Rx</text>
  <rect x="58" y="322" width="84" height="17" rx="3" fill="url(#tagOrange)"/>
  <text x="62" y="334" font-family="'Courier New', monospace" font-size="9" fill="#FFB87E" letter-spacing="0.5">자체 처방 DB</text>

  <text x="30" y="360" font-family="'Courier New', monospace" font-size="8.5" fill="#0D8B8B" fill-opacity="0.5" letter-spacing="1">RPT</text>
  <rect x="58" y="348" width="44" height="17" rx="3" fill="url(#tagPurple)"/>
  <text x="62" y="360" font-family="'Courier New', monospace" font-size="9" fill="#C87EFF" letter-spacing="0.5">SFTP</text>
  <rect x="108" y="348" width="56" height="17" rx="3" fill="url(#tagPurple)"/>
  <text x="112" y="360" font-family="'Courier New', monospace" font-size="9" fill="#C87EFF" letter-spacing="0.5">PDF</text>

  <text x="30" y="396" font-family="'Courier New', monospace" font-size="8.5" fill="#0D8B8B" fill-opacity="0.4" letter-spacing="0.5">DB 직접 조회 · 비표준 XML 포맷</text>

  <!-- ── HOSPITAL C ── -->
  <rect x="20" y="426" width="260" height="148" rx="8" fill="url(#hospPanel)" stroke="#0D8B8B" stroke-width="1" stroke-opacity="0.35"/>
  <rect x="20" y="426" width="260" height="28" rx="8" fill="#0D8B8B" fill-opacity="0.1"/>
  <rect x="20" y="441" width="260" height="13" fill="#0D8B8B" fill-opacity="0.1"/>
  <rect x="30" y="432" width="12" height="4" rx="1" fill="#0D8B8B" fill-opacity="0.6"/>
  <rect x="34" y="428" width="4" height="12" rx="1" fill="#0D8B8B" fill-opacity="0.6"/>
  <text x="50" y="445" font-family="'Courier New', monospace" font-size="11" fill="#1DFFF0" font-weight="bold" letter-spacing="1">병원 C</text>
  <text x="110" y="445" font-family="'Courier New', monospace" font-size="9" fill="#0D8B8B" fill-opacity="0.5">· 지역의원</text>

  <text x="30" y="472" font-family="'Courier New', monospace" font-size="8.5" fill="#0D8B8B" fill-opacity="0.5" letter-spacing="1">XML</text>
  <rect x="58" y="460" width="40" height="17" rx="3" fill="url(#tagBlue)"/>
  <text x="62" y="472" font-family="'Courier New', monospace" font-size="9" fill="#7EC8FF" letter-spacing="0.5">SMB</text>
  <rect x="104" y="460" width="80" height="17" rx="3" fill="url(#tagBlue)"/>
  <text x="108" y="472" font-family="'Courier New', monospace" font-size="9" fill="#7EC8FF" letter-spacing="0.5">자체 XML 3</text>

  <text x="30" y="498" font-family="'Courier New', monospace" font-size="8.5" fill="#0D8B8B" fill-opacity="0.5" letter-spacing="1">Rx</text>
  <rect x="58" y="486" width="80" height="17" rx="3" fill="url(#tagOrange)"/>
  <text x="62" y="498" font-family="'Courier New', monospace" font-size="9" fill="#FFB87E" letter-spacing="0.5">REST / JSON</text>

  <text x="30" y="524" font-family="'Courier New', monospace" font-size="8.5" fill="#0D8B8B" fill-opacity="0.5" letter-spacing="1">RPT</text>
  <rect x="58" y="512" width="36" height="17" rx="3" fill="url(#tagPurple)"/>
  <text x="62" y="524" font-family="'Courier New', monospace" font-size="9" fill="#C87EFF" letter-spacing="0.5">FTP</text>
  <rect x="100" y="512" width="56" height="17" rx="3" fill="url(#tagPurple)"/>
  <text x="104" y="524" font-family="'Courier New', monospace" font-size="9" fill="#C87EFF" letter-spacing="0.5">HL7 CDA</text>

  <text x="30" y="560" font-family="'Courier New', monospace" font-size="8.5" fill="#0D8B8B" fill-opacity="0.4" letter-spacing="0.5">파일공유 기반 · 폐쇄망 직접접속</text>

  <!-- +2 more hint -->
  <rect x="20" y="585" width="260" height="28" rx="6" fill="#0D8B8B" fill-opacity="0.05" stroke="#0D8B8B" stroke-width="0.8" stroke-opacity="0.25" stroke-dasharray="4,3"/>
  <text x="150" y="603" text-anchor="middle" font-family="'Courier New', monospace" font-size="9.5" fill="#0D8B8B" fill-opacity="0.45" letter-spacing="2">+ 2 more hospitals</text>

  <!-- ─── CONVERGENT ARROWS (Hospital → Core) ─── -->
  <!-- Hospital A arrow -->
  <path d="M282,172 C340,172 370,315 415,315" fill="none" stroke="#0D8B8B" stroke-width="1.5" stroke-opacity="0.4" stroke-dasharray="5,3" marker-end="url(#arrowT)"/>
  <!-- Hospital B arrow -->
  <line x1="282" y1="336" x2="415" y2="336" stroke="#0D8B8B" stroke-width="1.5" stroke-opacity="0.5" stroke-dasharray="5,3" marker-end="url(#arrowT)"/>
  <!-- Hospital C arrow -->
  <path d="M282,500 C340,500 370,355 415,355" fill="none" stroke="#0D8B8B" stroke-width="1.5" stroke-opacity="0.35" stroke-dasharray="5,3" marker-end="url(#arrowT)"/>

  <!-- Moving dots on arrows -->
  <circle cx="330" cy="205" r="3" fill="#1DFFF0" fill-opacity="0.85"/>
  <circle cx="350" cy="336" r="3" fill="#1DFFF0" fill-opacity="0.85"/>
  <circle cx="325" cy="465" r="3" fill="#1DFFF0" fill-opacity="0.85"/>

  <!-- ─── CENTER: FRAMEWORK CORE ─── -->

  <!-- Outer glow ring -->
  <circle cx="600" cy="340" r="135" fill="none" stroke="#0D8B8B" stroke-width="0.5" stroke-opacity="0.2" stroke-dasharray="4,8"/>
  <circle cx="600" cy="340" r="118" fill="none" stroke="#0D8B8B" stroke-width="0.8" stroke-opacity="0.35"/>

  <!-- Core panel hexagon-ish (using polygon) -->
  <polygon points="600,210 706,273 706,407 600,470 494,407 494,273"
           fill="url(#corePanel)" stroke="#0D8B8B" stroke-width="1.5" stroke-opacity="0.7" filter="url(#tealGlow)"/>

  <!-- Core inner accent ring -->
  <circle cx="600" cy="340" r="75" fill="none" stroke="#0D8B8B" stroke-width="0.5" stroke-opacity="0.3" stroke-dasharray="2,6"/>

  <!-- Core title -->
  <text x="600" y="268" text-anchor="middle" font-family="'Courier New', monospace" font-size="10" fill="#0D8B8B" fill-opacity="0.6" letter-spacing="3">TEST CORE</text>
  <text x="600" y="295" text-anchor="middle" font-family="'Courier New', monospace" font-size="19" fill="#1DFFF0" font-weight="bold" letter-spacing="2" filter="url(#tealGlow)">표준화</text>
  <text x="600" y="314" text-anchor="middle" font-family="'Courier New', monospace" font-size="9" fill="#0D8B8B" fill-opacity="0.55" letter-spacing="2">ABSTRACTION LAYER</text>

  <!-- Divider line inside core -->
  <line x1="516" y1="328" x2="684" y2="328" stroke="#0D8B8B" stroke-width="0.6" stroke-opacity="0.35"/>

  <!-- Stack items inside core -->
  <!-- Spring Boot -->
  <rect x="520" y="338" width="88" height="22" rx="4" fill="#0D8B8B" fill-opacity="0.15" stroke="#0D8B8B" stroke-width="0.8" stroke-opacity="0.4"/>
  <text x="564" y="353" text-anchor="middle" font-family="'Courier New', monospace" font-size="9" fill="#0D8B8B" letter-spacing="0.5">Spring Boot</text>

  <!-- Kafka -->
  <rect x="618" y="338" width="64" height="22" rx="4" fill="#0D8B8B" fill-opacity="0.15" stroke="#0D8B8B" stroke-width="0.8" stroke-opacity="0.4"/>
  <text x="650" y="353" text-anchor="middle" font-family="'Courier New', monospace" font-size="9" fill="#0D8B8B" letter-spacing="0.5">Kafka</text>

  <!-- Docker -->
  <rect x="520" y="368" width="64" height="22" rx="4" fill="#0D8B8B" fill-opacity="0.15" stroke="#0D8B8B" stroke-width="0.8" stroke-opacity="0.4"/>
  <text x="552" y="383" text-anchor="middle" font-family="'Courier New', monospace" font-size="9" fill="#0D8B8B" letter-spacing="0.5">Docker</text>

  <!-- JUnit -->
  <rect x="592" y="368" width="90" height="22" rx="4" fill="#0D8B8B" fill-opacity="0.15" stroke="#0D8B8B" stroke-width="0.8" stroke-opacity="0.4"/>
  <text x="637" y="383" text-anchor="middle" font-family="'Courier New', monospace" font-size="9" fill="#0D8B8B" letter-spacing="0.5">JUnit 5</text>

  <!-- Sample data -->
  <text x="600" y="415" text-anchor="middle" font-family="'Courier New', monospace" font-size="8.5" fill="#0D8B8B" fill-opacity="0.4" letter-spacing="1">XML 샘플 · Stub EMR · 시나리오 자동화</text>

  <!-- Rotating accent marks on hexagon edges -->
  <circle cx="600" cy="210" r="4" fill="#0D8B8B" fill-opacity="0.7"/>
  <circle cx="706" cy="273" r="4" fill="#0D8B8B" fill-opacity="0.7"/>
  <circle cx="706" cy="407" r="4" fill="#0D8B8B" fill-opacity="0.7"/>
  <circle cx="600" cy="470" r="4" fill="#0D8B8B" fill-opacity="0.7"/>
  <circle cx="494" cy="407" r="4" fill="#0D8B8B" fill-opacity="0.7"/>
  <circle cx="494" cy="273" r="4" fill="#0D8B8B" fill-opacity="0.7"/>

  <!-- ─── DIVERGENT ARROWS (Core → Results) ─── -->
  <path d="M706,273 C760,273 790,218 820,218" fill="none" stroke="#00C97A" stroke-width="1.5" stroke-opacity="0.5" stroke-dasharray="5,3" marker-end="url(#arrowG)"/>
  <line x1="708" y1="340" x2="820" y2="340" stroke="#00C97A" stroke-width="1.5" stroke-opacity="0.6" stroke-dasharray="5,3" marker-end="url(#arrowG)"/>
  <path d="M706,407 C760,407 790,462 820,462" fill="none" stroke="#00C97A" stroke-width="1.5" stroke-opacity="0.5" stroke-dasharray="5,3" marker-end="url(#arrowG)"/>

  <!-- Moving dots on output arrows -->
  <circle cx="766" cy="248" r="3" fill="#00C97A" fill-opacity="0.9"/>
  <circle cx="766" cy="340" r="3" fill="#00C97A" fill-opacity="0.9"/>
  <circle cx="766" cy="432" r="3" fill="#00C97A" fill-opacity="0.9"/>

  <!-- ─── RIGHT COLUMN: RESULTS ─── -->

  <text x="828" y="85" font-family="'Courier New', monospace" font-size="9" fill="#00C97A" fill-opacity="0.5" letter-spacing="3">TEST RESULTS</text>
  <line x1="828" y1="90" x2="1160" y2="90" stroke="#00C97A" stroke-width="0.5" stroke-opacity="0.3"/>

  <!-- Result card: XML Flow -->
  <rect x="822" y="170" width="356" height="110" rx="8" fill="url(#resultPanel)" stroke="#00C97A" stroke-width="1" stroke-opacity="0.35"/>
  <rect x="822" y="170" width="356" height="26" rx="8" fill="#00C97A" fill-opacity="0.1"/>
  <rect x="822" y="184" width="356" height="12" fill="#00C97A" fill-opacity="0.1"/>
  <text x="838" y="188" font-family="'Courier New', monospace" font-size="10" fill="#00C97A" fill-opacity="0.6" letter-spacing="2">XML INTAKE FLOW</text>
  <text x="960" y="188" font-family="'Courier New', monospace" font-size="9" fill="#0D8B8B" fill-opacity="0.4">SFTP · FTP · SMB · API</text>
  <!-- pass badge -->
  <rect x="838" y="202" width="324" height="28" rx="5" fill="url(#passBg)" stroke="#00C97A" stroke-width="1" stroke-opacity="0.5"/>
  <text x="1000" y="221" text-anchor="middle" font-family="'Courier New', monospace" font-size="14" fill="#00C97A" font-weight="bold" letter-spacing="4" filter="url(#greenGlow)">✓  PASS</text>
  <!-- sub stats -->
  <text x="838" y="258" font-family="'Courier New', monospace" font-size="8.5" fill="#00C97A" fill-opacity="0.45">포맷 정규화 · 병원별 샘플 자동생성 · 수신 검증</text>

  <!-- Result card: Prescription Flow -->
  <rect x="822" y="292" width="356" height="110" rx="8" fill="url(#resultPanel)" stroke="#00C97A" stroke-width="1" stroke-opacity="0.35"/>
  <rect x="822" y="292" width="356" height="26" rx="8" fill="#00C97A" fill-opacity="0.1"/>
  <rect x="822" y="306" width="356" height="12" fill="#00C97A" fill-opacity="0.1"/>
  <text x="838" y="310" font-family="'Courier New', monospace" font-size="10" fill="#00C97A" fill-opacity="0.6" letter-spacing="2">PRESCRIPTION LOOKUP</text>
  <text x="1010" y="310" font-family="'Courier New', monospace" font-size="9" fill="#0D8B8B" fill-opacity="0.4">EMR · DB · REST</text>
  <rect x="838" y="324" width="324" height="28" rx="5" fill="url(#passBg)" stroke="#00C97A" stroke-width="1" stroke-opacity="0.5"/>
  <text x="1000" y="343" text-anchor="middle" font-family="'Courier New', monospace" font-size="14" fill="#00C97A" font-weight="bold" letter-spacing="4" filter="url(#greenGlow)">✓  PASS</text>
  <text x="838" y="380" font-family="'Courier New', monospace" font-size="8.5" fill="#00C97A" fill-opacity="0.45">EMR Stub 응답 · 인증 방식 추상화 · 응답 검증</text>

  <!-- Result card: Report Delivery -->
  <rect x="822" y="414" width="356" height="110" rx="8" fill="url(#resultPanel)" stroke="#00C97A" stroke-width="1" stroke-opacity="0.35"/>
  <rect x="822" y="414" width="356" height="26" rx="8" fill="#00C97A" fill-opacity="0.1"/>
  <rect x="822" y="428" width="356" height="12" fill="#00C97A" fill-opacity="0.1"/>
  <text x="838" y="432" font-family="'Courier New', monospace" font-size="10" fill="#00C97A" fill-opacity="0.6" letter-spacing="2">REPORT DELIVERY</text>
  <text x="990" y="432" font-family="'Courier New', monospace" font-size="9" fill="#0D8B8B" fill-opacity="0.4">API · SFTP · FTP · HL7</text>
  <rect x="838" y="446" width="324" height="28" rx="5" fill="url(#passBg)" stroke="#00C97A" stroke-width="1" stroke-opacity="0.5"/>
  <text x="1000" y="465" text-anchor="middle" font-family="'Courier New', monospace" font-size="14" fill="#00C97A" font-weight="bold" letter-spacing="4" filter="url(#greenGlow)">✓  PASS</text>
  <text x="838" y="502" font-family="'Courier New', monospace" font-size="8.5" fill="#00C97A" fill-opacity="0.45">전송 결과 검증 · 포맷 어설션 · 재시도 시나리오</text>

  <!-- ─── BOTTOM STAT BADGES ─── -->
  <line x1="0" y1="554" x2="1200" y2="554" stroke="#0D8B8B" stroke-width="0.5" stroke-opacity="0.2"/>

  <!-- Badge: 5 hospitals -->
  <rect x="282" y="565" width="128" height="30" rx="6" fill="#0D8B8B" fill-opacity="0.08" stroke="#0D8B8B" stroke-width="0.8" stroke-opacity="0.4"/>
  <text x="346" y="585" text-anchor="middle" font-family="'Courier New', monospace" font-size="10" fill="#0D8B8B" fill-opacity="0.75" letter-spacing="1">5 Hospitals</text>

  <!-- Badge: 0 incidents -->
  <rect x="424" y="565" width="128" height="30" rx="6" fill="#00C97A" fill-opacity="0.06" stroke="#00C97A" stroke-width="0.8" stroke-opacity="0.4"/>
  <text x="488" y="585" text-anchor="middle" font-family="'Courier New', monospace" font-size="10" fill="#00C97A" fill-opacity="0.75" letter-spacing="1">0 Incidents</text>

  <!-- Badge: 530+ cases -->
  <rect x="566" y="565" width="128" height="30" rx="6" fill="#0D8B8B" fill-opacity="0.08" stroke="#0D8B8B" stroke-width="0.8" stroke-opacity="0.4"/>
  <text x="630" y="585" text-anchor="middle" font-family="'Courier New', monospace" font-size="10" fill="#0D8B8B" fill-opacity="0.75" letter-spacing="1">530+ Cases</text>

  <!-- Badge: 3 flows -->
  <rect x="708" y="565" width="128" height="30" rx="6" fill="#0D8B8B" fill-opacity="0.08" stroke="#0D8B8B" stroke-width="0.8" stroke-opacity="0.4"/>
  <text x="772" y="585" text-anchor="middle" font-family="'Courier New', monospace" font-size="10" fill="#0D8B8B" fill-opacity="0.75" letter-spacing="1">3 Core Flows</text>

  <!-- Bottom caption -->
  <text x="600" y="620" text-anchor="middle" font-family="'Courier New', monospace" font-size="9" fill="#0D8B8B" fill-opacity="0.25" letter-spacing="3">CLOSED NETWORK · REPRODUCIBLE · HOSPITAL GRADE</text>

  <!-- ─── CORNER FRAME ─── -->
  <line x1="0" y1="52" x2="0" y2="630" stroke="#0D8B8B" stroke-width="0.5" stroke-opacity="0.15"/>
  <line x1="1199" y1="52" x2="1199" y2="630" stroke="#0D8B8B" stroke-width="0.5" stroke-opacity="0.15"/>
  <line x1="0" y1="629" x2="1200" y2="629" stroke="#0D8B8B" stroke-width="0.5" stroke-opacity="0.15"/>
</svg>
